<svg width="436" height="388" viewBox="0 0 436 388" fill="none" xmlns="http://www.w3.org/2000/svg">
<g clip-path="url(#clip0_233_2)">
<path d="M50.0082 388L49.6289 387.859C36.7757 383.015 26.7056 372.768 22.0941 359.84C20.8446 356.247 20.0529 352.511 19.7377 348.72L19.7067 348.359L20.0643 348.422C24.3328 349.188 28.8138 349.611 30.8103 349.776L19.6094 342.371L19.6296 341.986C19.804 338.371 22.1624 335.226 25.5859 334.043C29.042 332.767 32.9269 333.721 35.3979 336.452C36.5115 337.659 37.6888 338.875 38.8271 340.05C42.7393 344.09 46.7846 348.267 49.3426 353.198C53.1896 360.796 53.3984 369.723 49.9109 377.492L50.0082 388Z" fill="#A2CB49"/>
<path d="M276.644 380.825L276.64 380.785C276.145 369.801 274.127 358.939 270.646 348.51L270.643 348.492C270.44 347.421 270.499 346.317 270.815 345.273C271.787 342.283 274.802 340.452 277.907 340.967C281.114 341.569 284.432 341.003 287.257 339.372C289.052 338.332 291.229 338.188 293.145 338.982C294.952 339.718 296.304 341.265 296.79 343.153C296.828 343.301 296.861 343.451 296.889 343.604C296.991 354.639 299.02 365.572 302.884 375.91L302.887 375.923C303.291 378.058 302.646 380.257 301.152 381.836C299.832 383.175 297.982 383.854 296.109 383.687C292.745 383.458 289.286 384.14 285.534 385.772C284.223 386.355 282.749 386.458 281.37 386.064C278.93 385.35 277.102 383.323 276.644 380.825Z" fill="#F04C1A"/>
<path d="M169.128 229.948V374.18H270.264V229.948C270.267 227.818 268.88 225.936 266.843 225.307C266.376 225.152 265.886 225.076 265.393 225.082H174.013C171.32 225.077 169.134 227.253 169.128 229.943V229.948ZM208.597 279.506C208.652 273.549 213.53 268.764 219.493 268.819C225.378 268.873 230.136 273.627 230.19 279.506V296.242C230.161 302.199 225.305 307.005 219.342 306.977C213.42 306.949 208.625 302.159 208.597 296.242V279.506Z" fill="#2F2E41"/>
<path d="M168.819 369.567V383.476C168.824 384.975 170.035 386.192 171.535 386.204H267.857C269.36 386.197 270.574 384.977 270.574 383.476V369.567H168.819Z" fill="#2F2E41"/>
<path d="M10.0288 12.6429V275.991C10.0343 282.978 15.7029 288.642 22.6971 288.647H413.303C420.298 288.642 425.966 282.978 425.972 275.991V12.6429C425.955 5.66183 420.291 0.00885575 413.303 0H22.6971C15.7098 0.00889054 10.0454 5.66185 10.0288 12.6429Z" fill="#2F2E41"/>
<path d="M410.045 9.14111H25.9555C22.2142 9.14924 19.1854 12.1816 19.1851 15.9196V272.742C19.1915 276.475 22.219 279.5 25.9555 279.506H410.045C413.781 279.5 416.809 276.475 416.815 272.742V15.9196C416.815 12.1816 413.786 9.14925 410.045 9.14111ZM313.157 191.602C312.009 193.868 309.68 195.294 307.138 195.288L307.098 195.285C303.416 194.773 299.72 194.435 296.011 194.271C296.587 194.683 297.094 195.184 297.512 195.755C298.589 197.296 298.92 199.237 298.414 201.047C297.575 204.309 297.615 207.832 298.537 211.816C298.871 213.21 298.704 214.677 298.065 215.96C296.917 218.226 294.588 219.652 292.046 219.646L292.006 219.643C283.213 218.419 274.31 218.182 265.464 218.936C265.429 219.159 265.385 219.383 265.328 219.606C264.489 222.868 264.528 226.39 265.45 230.374C265.785 231.768 265.617 233.235 264.978 234.518C263.83 236.784 261.502 238.21 258.96 238.204L258.919 238.201C249.889 236.945 240.743 236.73 231.663 237.56C231.594 239.825 231.83 242.09 232.364 244.293C232.698 245.687 232.531 247.154 231.891 248.437C230.743 250.703 228.415 252.129 225.873 252.123L225.833 252.12C214.934 250.603 203.876 250.603 192.977 252.12H192.96C191.869 252.124 190.793 251.865 189.823 251.364C187.057 249.863 185.806 246.567 186.879 243.611C187.208 242.68 187.453 241.722 187.61 240.747C177.622 239.597 167.528 239.716 157.569 241.101H157.551C156.46 241.105 155.384 240.846 154.415 240.345C151.649 238.844 150.397 235.548 151.471 232.592C152.648 229.551 152.696 226.189 151.607 223.116C151.093 221.675 151.093 220.101 151.606 218.66C144.099 218.278 136.571 218.607 129.126 219.643H129.108C128.017 219.647 126.941 219.388 125.972 218.887C123.206 217.386 121.954 214.09 123.028 211.134C124.205 208.093 124.254 204.732 123.164 201.658C122.468 199.706 122.723 197.54 123.855 195.803C124.908 194.162 126.677 193.117 128.624 192.984C128.777 192.974 128.93 192.968 129.086 192.968C132.9 193.635 136.752 194.069 140.619 194.27C138.152 192.65 137.119 189.551 138.12 186.776C139.297 183.736 139.346 180.374 138.256 177.301C137.56 175.348 137.815 173.183 138.947 171.445C138.996 171.371 139.053 171.304 139.104 171.232C136.352 171.421 133.607 171.707 130.867 172.088H130.85C129.759 172.092 128.683 171.832 127.713 171.331C124.947 169.831 123.696 166.535 124.769 163.579C125.947 160.538 125.995 157.176 124.905 154.103C124.209 152.15 124.464 149.985 125.596 148.248C126.65 146.607 128.419 145.561 130.365 145.429C130.518 145.418 130.672 145.413 130.827 145.413C135.414 146.215 140.053 146.682 144.708 146.809C143.521 145.099 143.229 142.923 143.924 140.961C145.102 137.92 145.15 134.558 144.061 131.485C143.364 129.532 143.62 127.367 144.752 125.63C145.805 123.989 147.574 122.944 149.521 122.811C149.674 122.801 149.827 122.795 149.983 122.795C153.864 123.473 157.784 123.912 161.72 124.108C160.874 122.508 160.736 120.629 161.339 118.923C162.516 115.882 162.564 112.52 161.475 109.447C160.778 107.494 161.034 105.329 162.166 103.592C163.219 101.951 164.988 100.906 166.935 100.773C167.088 100.763 167.241 100.757 167.397 100.757C171.964 101.556 176.583 102.022 181.218 102.151C180.587 100.662 180.536 98.9905 181.074 97.465C182.252 94.4242 182.3 91.0624 181.21 87.9891C180.514 86.0365 180.77 83.8712 181.901 82.1339C182.955 80.4933 184.724 79.4477 186.67 79.3149C186.823 79.3047 186.977 79.2993 187.132 79.2993C198.011 81.2123 209.14 81.2137 220.018 79.3036H220.032C220.872 79.4764 221.738 79.4764 222.577 79.3036H222.591C233.47 81.2137 244.599 81.2123 255.477 79.2993C255.632 79.2993 255.786 79.3047 255.939 79.3149C257.885 79.4477 259.654 80.4933 260.708 82.1339C261.839 83.8712 262.095 86.0365 261.399 87.9891C260.309 91.0624 260.357 94.4242 261.535 97.465C262.073 98.9905 262.022 100.662 261.391 102.151C266.026 102.022 270.645 101.556 275.213 100.757C275.368 100.757 275.522 100.763 275.675 100.773C277.621 100.906 279.39 101.951 280.444 103.592C281.575 105.329 281.831 107.494 281.135 109.447C280.045 112.52 280.093 115.882 281.271 118.923C281.873 120.629 281.735 122.508 280.89 124.108C284.825 123.912 288.745 123.473 292.627 122.795C292.782 122.795 292.936 122.801 293.089 122.811C295.035 122.944 296.804 123.989 297.858 125.63C298.989 127.367 299.245 129.532 298.549 131.485C297.459 134.558 297.507 137.92 298.685 140.961C299.382 142.928 299.087 145.11 297.893 146.822C298.411 147.212 298.87 147.677 299.254 148.2C300.331 149.741 300.661 151.682 300.156 153.492C299.317 156.754 299.357 160.277 300.278 164.261C300.613 165.654 300.445 167.121 299.806 168.404C299.572 168.861 299.287 169.29 298.957 169.683C301.674 169.444 304.385 169.088 307.089 168.615H307.102C309.277 168.607 311.323 169.642 312.605 171.397C313.681 172.938 314.012 174.88 313.507 176.69C312.668 179.952 312.707 183.474 313.629 187.458C313.963 188.852 313.796 190.319 313.157 191.602Z" fill="#3F3D56"/>
<path d="M397.587 44.5194H38.1959C37.4066 44.502 36.7808 43.8486 36.7982 43.06C36.8151 42.2959 37.4311 41.6804 38.1959 41.6636H397.587C398.376 41.6809 399.002 42.3343 398.984 43.1229C398.967 43.8871 398.351 44.5026 397.587 44.5194Z" fill="#2F2E41"/>
<path d="M222.234 245.281L222.193 245.279C211.294 243.761 200.237 243.761 189.338 245.279H189.32C188.229 245.283 187.153 245.023 186.184 244.523C183.418 243.022 182.166 239.726 183.24 236.77C184.417 233.729 184.466 230.367 183.376 227.294C182.679 225.341 182.935 223.176 184.067 221.439C185.12 219.798 186.889 218.752 188.836 218.62C188.989 218.609 189.142 218.604 189.298 218.604C200.176 220.517 211.305 220.518 222.184 218.608H222.197C224.372 218.601 226.418 219.635 227.7 221.391C228.776 222.932 229.107 224.873 228.602 226.683C227.763 229.945 227.802 233.468 228.724 237.452C229.058 238.845 228.891 240.312 228.252 241.595C227.104 243.861 224.776 245.287 222.234 245.281Z" fill="#FAA346"/>
<path d="M255.751 188.42L246.983 181.17C240.407 184.614 230.402 198.361 230.402 198.361L207.32 214.947C204.549 215.078 202.408 217.43 202.54 220.2C202.672 222.969 205.027 225.108 207.799 224.976C209.597 224.89 211.213 223.849 212.033 222.247L243.394 205.69L255.751 188.42Z" fill="#FFB8B8"/>
<path d="M270.544 160.828C275.605 165.11 276.233 172.681 271.947 177.737C271.467 178.303 270.935 178.824 270.358 179.293L264.783 183.821C264.783 183.821 250.874 203.826 243.635 206.146L225.049 215.847L216.668 207.452L233.512 193.737C233.512 193.737 241.26 186.416 242.036 181.056C242.511 177.774 248.071 168.833 253.644 162.202C257.921 157.161 265.479 156.538 270.525 160.812L270.544 160.828Z" fill="#1A1D1F"/>
<path d="M252.525 377.933L244.603 377.933L240.834 347.404L252.526 347.405L252.525 377.933Z" fill="#FFB6B6"/>
<path d="M252.804 386.19L228.443 386.189V385.881C228.444 380.649 232.689 376.408 237.925 376.408L242.375 373.035L250.678 376.408L252.804 376.408L252.804 386.19Z" fill="#3F3D56"/>
<path d="M312.884 336.276L309.132 343.246L280.435 332.107L285.972 321.818L312.884 336.276Z" fill="#FFB6B6"/>
<path d="M320.295 339.94L308.758 361.376L308.487 361.23C303.875 358.752 302.146 353.009 304.626 348.401L304.626 348.4L303.76 342.887L310.665 337.179L311.672 335.308L320.295 339.94Z" fill="#3F3D56"/>
<path d="M237.547 238.131L230.556 294.014L234.052 312.749L296.977 340.292L300.473 328.941C284.388 319.108 267.194 304.226 256.36 303.131C256.36 303.131 255.461 293.214 263.223 287.094C264.789 285.859 264.446 284.189 265.08 282.674C265.515 281.633 267.247 280.548 267.691 279.48C268.266 278.095 267.555 276.72 268.133 275.313C268.458 274.522 269.69 274.472 270.013 273.68C270.564 272.33 270.203 270.239 270.74 268.905C271.888 266.054 272.991 263.266 273.998 260.652C277.133 252.517 279.339 246.072 279.061 244.68C278.187 240.314 237.547 238.131 237.547 238.131Z" fill="#3B3343"/>
<path d="M236.343 293.853L232.686 317.452L241.917 365.614H254.153C258.549 349.432 258.775 328.163 254.59 310.168L236.343 293.853Z" fill="#3B3343"/>
<path d="M244.204 169.853L249.845 160.033L255.901 155.179L267.262 153.433L270.419 155.858C281.778 173.204 286.015 194.255 282.248 214.64L281.361 219.439L280.798 222.484L281.042 226.125L279.146 231.425L279.407 235.306L279.546 237.379L279.686 239.46L279.881 242.363C280.23 244.021 278.471 243.802 278.72 245.263C279.157 247.829 281.116 251.63 278.139 251.643L247.375 245.263C239.559 245.295 232.283 235.984 239.829 228.445L244.204 169.853Z" fill="#1A1D1F"/>
<path d="M258.605 150.698C266.855 150.698 273.544 144.015 273.544 135.772C273.544 127.529 266.855 120.846 258.605 120.846C250.354 120.846 243.666 127.529 243.666 135.772C243.666 144.015 250.354 150.698 258.605 150.698Z" fill="#FFB8B8"/>
<path d="M258.858 150.274C261.044 150.308 263.229 150.155 265.389 149.818C267.529 149.383 272.319 145.876 273.654 143.766C274.646 142.198 275.28 139.75 275.638 137.972C276.611 133.215 275.521 128.269 272.636 124.361C272.088 123.553 271.332 122.908 270.446 122.494C270.368 122.463 270.287 122.436 270.206 122.413C268.916 122.074 267.757 121.357 266.878 120.355C266.708 120.153 266.523 119.963 266.325 119.787C265.331 118.949 264.153 118.358 262.887 118.062C260.843 117.515 257.886 118.058 254.097 119.676C252.193 120.488 250.111 120.194 248.509 119.847C248.326 119.812 248.139 119.876 248.016 120.016C247.335 120.655 246.436 121.013 245.502 121.017C244.929 121.043 244.328 121.835 243.603 122.867C243.438 123.102 243.246 123.375 243.107 123.542L243.088 123.222L242.765 123.579C241.099 125.413 241.237 128.25 243.073 129.914C243.566 130.361 244.153 130.693 244.791 130.886C245.367 131.039 245.957 131.133 246.552 131.166C246.913 131.199 247.285 131.232 247.643 131.294C249.975 131.771 251.885 133.438 252.672 135.682C253.002 136.602 254.015 137.08 254.936 136.75C255.08 136.698 255.217 136.628 255.344 136.541C256.099 135.953 257.094 135.772 258.009 136.056C258.398 136.272 258.701 136.616 258.867 137.029C259.068 137.489 259.403 137.878 259.827 138.148C261.278 138.895 261.378 142.206 260.856 144.965C260.354 147.626 259.361 149.55 258.442 149.645C257.734 149.718 257.653 149.769 257.602 149.894L257.556 150.006L257.636 150.11C258.027 150.252 258.444 150.308 258.858 150.274Z" fill="#111315"/>
<path d="M228.618 141.471L228.578 141.469C217.679 139.951 206.622 139.951 195.723 141.469H195.705C194.614 141.473 193.538 141.213 192.569 140.712C189.803 139.212 188.551 135.916 189.624 132.96C190.802 129.919 190.85 126.557 189.76 123.484C189.064 121.531 189.32 119.366 190.451 117.629C191.505 115.988 193.274 114.942 195.22 114.81C195.374 114.799 195.527 114.794 195.682 114.794C206.561 116.707 217.69 116.708 228.568 114.798H228.582C230.757 114.791 232.803 115.825 234.085 117.581C235.161 119.122 235.492 121.063 234.986 122.873C234.147 126.135 234.187 129.658 235.109 133.642C235.443 135.035 235.276 136.502 234.637 137.785C233.489 140.051 231.16 141.477 228.618 141.471Z" fill="#6666FC"/>
<path d="M242.589 176.625L248.77 167.078C244.579 160.956 229.745 152.635 229.745 152.635L210.56 131.67C210.105 128.935 207.517 127.086 204.78 127.541C202.042 127.996 200.192 130.581 200.647 133.316C200.942 135.091 202.166 136.573 203.854 137.199L223.978 166.383L242.589 176.625Z" fill="#FFB8B8"/>
<path d="M271.745 188.08C268.079 193.602 260.628 195.109 255.101 191.448C254.481 191.037 253.901 190.57 253.368 190.053L248.215 185.049C248.215 185.049 226.613 173.78 223.46 166.868L209.306 146.809L218.796 138.255L235.292 153.238C235.292 153.238 242.887 162.012 248.305 162.156C251.624 162.243 261.161 166.716 268.404 171.47C273.915 175.126 275.417 182.552 271.759 188.058L271.745 188.08Z" fill="#1A1D1F"/>
<path d="M127.841 386.103L127.801 386.1C116.902 384.583 105.844 384.583 94.9454 386.1H94.9278C93.8366 386.104 92.7606 385.845 91.7913 385.344C89.0255 383.843 87.7738 380.547 88.847 377.591C90.0247 374.55 90.073 371.188 88.9831 368.115C88.2869 366.163 88.5425 363.997 89.6741 362.26C90.7278 360.619 92.4965 359.574 94.4431 359.441C94.5962 359.431 94.7498 359.425 94.9051 359.425C105.783 361.338 116.912 361.34 127.791 359.43H127.805C129.979 359.422 132.026 360.457 133.307 362.212C134.384 363.753 134.715 365.694 134.209 367.504C133.37 370.766 133.41 374.289 134.332 378.273C134.666 379.667 134.499 381.134 133.859 382.417C132.711 384.683 130.383 386.109 127.841 386.103Z" fill="#32AD5F"/>
<path d="M137.129 361.745L137.088 361.742C126.189 360.225 115.132 360.225 104.233 361.742H104.215C103.124 361.747 102.048 361.487 101.079 360.986C98.3131 359.486 97.0614 356.19 98.1346 353.234C99.3123 350.193 99.3606 346.831 98.2707 343.758C97.5745 341.805 97.8301 339.64 98.9617 337.902C100.015 336.262 101.784 335.216 103.731 335.083C103.884 335.073 104.037 335.068 104.193 335.068C115.071 336.981 126.2 336.982 137.079 335.072H137.092C139.267 335.064 141.313 336.099 142.595 337.855C143.671 339.396 144.002 341.337 143.497 343.147C142.658 346.409 142.697 349.931 143.619 353.915C143.954 355.309 143.786 356.776 143.147 358.059C141.999 360.325 139.671 361.751 137.129 361.745Z" fill="#834BA4"/>
<path d="M55.8556 368.385L55.8805 368.354C63.2454 360.185 69.4409 351.034 74.2901 341.165L74.3 341.15C74.9079 340.245 75.7259 339.5 76.6842 338.979C79.4781 337.531 82.9118 338.342 84.7612 340.886C86.6222 343.565 89.3821 345.488 92.5407 346.308C94.5495 346.826 96.2014 348.251 97.0076 350.161C97.7773 351.952 97.653 354.002 96.6724 355.687C96.5951 355.819 96.5135 355.949 96.4265 356.078C88.7453 364.008 82.5083 373.217 77.9963 383.29L77.9886 383.301C76.7765 385.105 74.772 386.218 72.5987 386.295C70.718 386.323 68.9234 385.509 67.706 384.076C65.4716 381.554 62.5292 379.613 58.7099 378.144C57.3671 377.639 56.2447 376.679 55.5393 375.431C54.3039 373.212 54.4263 370.486 55.8556 368.385Z" fill="#6666FC"/>
<path d="M435.312 386.987L0.68755 387.166C0.30584 387.164 -0.00198715 386.853 9.65993e-06 386.472C0.00198325 386.093 0.308656 385.787 0.68755 385.785L435.312 385.606C435.694 385.608 436.002 385.919 436 386.301C435.998 386.679 435.691 386.986 435.312 386.987Z" fill="#CACACA"/>
<path d="M93.0206 31.2636C95.7316 31.2636 97.9294 29.019 97.9294 26.25C97.9294 23.481 95.7316 21.2363 93.0206 21.2363C90.3096 21.2363 88.1118 23.481 88.1118 26.25C88.1118 29.019 90.3096 31.2636 93.0206 31.2636Z" fill="#2F2E41"/>
<path d="M109.978 31.2636C112.689 31.2636 114.887 29.019 114.887 26.25C114.887 23.481 112.689 21.2363 109.978 21.2363C107.267 21.2363 105.069 23.481 105.069 26.25C105.069 29.019 107.267 31.2636 109.978 31.2636Z" fill="#2F2E41"/>
<path d="M126.936 31.2636C129.647 31.2636 131.844 29.019 131.844 26.25C131.844 23.481 129.647 21.2363 126.936 21.2363C124.225 21.2363 122.027 23.481 122.027 26.25C122.027 29.019 124.225 31.2636 126.936 31.2636Z" fill="#2F2E41"/>
<path d="M146.272 30.2126C146.121 30.2126 145.971 30.1542 145.857 30.0381L142.545 26.6553C142.324 26.4299 142.324 26.0697 142.545 25.8443L145.857 22.4617C146.082 22.2329 146.45 22.2293 146.678 22.4527C146.907 22.6767 146.911 23.044 146.687 23.2728L143.772 26.2498L146.687 29.2271C146.911 29.4559 146.907 29.8232 146.678 30.0472C146.565 30.1576 146.419 30.2126 146.272 30.2126Z" fill="#3F3D56"/>
<path d="M151.838 30.2125C151.691 30.2125 151.545 30.1576 151.432 30.0471C151.203 29.8231 151.199 29.4561 151.423 29.227L154.338 26.2497L151.423 23.2727C151.199 23.0439 151.203 22.6766 151.432 22.4526C151.661 22.2284 152.029 22.2326 152.253 22.4617L155.565 25.8442C155.785 26.0696 155.785 26.4298 155.565 26.6552L152.253 30.0381C152.139 30.1542 151.989 30.2125 151.838 30.2125Z" fill="#3F3D56"/>
<path d="M325.113 21.8169H318.954C318.252 21.8169 317.683 22.3852 317.683 23.087V29.246C317.683 29.9477 318.252 30.5161 318.954 30.5161H325.113C325.815 30.5161 326.39 29.9477 326.39 29.246V23.087C326.39 22.3852 325.815 21.8169 325.113 21.8169Z" fill="#2F2E41"/>
<path d="M310.021 21.8169H303.862C303.16 21.8169 302.591 22.3852 302.591 23.087V29.246C302.591 29.9477 303.16 30.5161 303.862 30.5161H310.021C310.723 30.5161 311.298 29.9477 311.298 29.246V23.087C311.298 22.3852 310.723 21.8169 310.021 21.8169Z" fill="#2F2E41"/>
<path d="M339.334 22.1069H333.176C332.473 22.1069 331.904 22.6753 331.904 23.377V29.536C331.904 30.2378 332.473 30.8061 333.176 30.8061H339.334C340.037 30.8061 340.611 30.2378 340.611 29.536V23.377C340.611 22.6753 340.037 22.1069 339.334 22.1069Z" fill="#2F2E41"/>
<path d="M246.505 24.4497H197.275C196.416 24.4497 195.726 25.1456 195.726 25.9982C195.726 26.8507 196.416 27.5466 197.275 27.5466H246.505C247.358 27.5466 248.055 26.8507 248.055 25.9982C248.055 25.1457 247.358 24.4497 246.505 24.4497Z" fill="#3F3D56"/>
</g>
<defs>
<clipPath id="clip0_233_2">
<rect width="436" height="388" fill="white"/>
</clipPath>
</defs>
</svg>
