<svg width="367" height="169" viewBox="0 0 367 169" fill="none" xmlns="http://www.w3.org/2000/svg">
<path d="M278.35 97.785C279.892 98.605 281.807 98.0199 282.627 96.4782C283.447 94.9365 282.862 93.022 281.32 92.202C279.778 91.382 277.864 91.9671 277.044 93.5088C276.224 95.0505 276.809 96.9651 278.35 97.785Z" fill="#F04C1A"/>
<path d="M276.051 133.095C277.593 133.915 279.507 133.33 280.327 131.788C281.147 130.246 280.562 128.332 279.021 127.512C277.479 126.692 275.564 127.277 274.744 128.818C273.924 130.36 274.509 132.275 276.051 133.095Z" fill="#30AB5D"/>
<path d="M266.551 49.9463C269.376 51.6855 271.749 54.0694 273.475 56.9029C275.201 59.7363 276.231 62.9384 276.481 66.2468C276.547 67.1817 276.71 68.2565 275.946 68.9595C275.664 69.2344 275.297 69.4055 274.905 69.4448C274.513 69.4841 274.12 69.3893 273.789 69.1759C273.404 68.854 273.137 68.4142 273.028 67.9248C272.919 67.4354 272.974 66.9237 273.186 66.4691C273.397 66.0145 273.753 65.6423 274.197 65.4102C274.642 65.1782 275.15 65.0993 275.644 65.1858C278.132 65.3993 279.465 67.823 280.55 69.7686C283.021 74.2004 285.99 78.5997 290.401 81.3003C294.483 83.7999 299.887 84.5521 304.179 82.1419C304.929 81.7226 304.225 80.5864 303.478 81.0063C299.22 83.3985 293.824 82.1976 290.031 79.4612C287.798 77.78 285.869 75.729 284.328 73.3969C283.514 72.2153 282.768 70.9888 282.061 69.7408C281.422 68.4907 280.672 67.2998 279.823 66.1822C278.355 64.4125 275.835 63.1491 273.581 64.2287C271.476 65.2347 270.955 68.4954 272.754 70.0501C273.156 70.3768 273.633 70.5988 274.141 70.6961C274.65 70.7934 275.175 70.7631 275.669 70.6077C276.163 70.4523 276.611 70.1768 276.973 69.8058C277.334 69.4349 277.598 68.98 277.741 68.482C278.056 67.3979 277.829 66.0525 277.684 64.9526C277.255 61.641 276.087 58.4681 274.269 55.6673C272.451 52.8665 270.027 50.5093 267.177 48.7691C266.439 48.3287 265.814 49.508 266.551 49.9463Z" fill="#9E58C5"/>
<path d="M357.472 44.8781C355.225 43.4951 353.337 41.5993 351.964 39.3461C350.591 37.0928 349.772 34.5463 349.573 31.9152C349.521 31.1713 349.391 30.3158 349.998 29.7576C350.223 29.539 350.515 29.4029 350.826 29.3716C351.138 29.3403 351.451 29.4157 351.714 29.5853C352.018 29.842 352.23 30.1916 352.315 30.5803C352.401 30.9689 352.357 31.375 352.189 31.7359C352.021 32.0968 351.739 32.3924 351.387 32.5772C351.034 32.7621 350.631 32.8258 350.239 32.7586C348.261 32.5878 347.201 30.6615 346.336 29.1137C344.372 25.5889 342.01 22.0899 338.5 19.941C335.256 17.9535 330.956 17.3542 327.542 19.2712C326.944 19.6066 327.504 20.5098 328.099 20.1743C331.485 18.2729 335.778 19.2243 338.794 21.4028C340.57 22.7401 342.104 24.3716 343.33 26.2266C343.977 27.1662 344.571 28.142 345.132 29.1361C345.641 30.1303 346.237 31.0774 346.913 31.9663C348.08 33.3743 350.082 34.3776 351.876 33.5193C352.275 33.3024 352.618 32.995 352.878 32.6217C353.137 32.2484 353.306 31.8195 353.369 31.3695C353.433 30.9195 353.391 30.4607 353.246 30.03C353.101 29.5992 352.857 29.2083 352.534 28.8887C352.214 28.6287 351.835 28.4521 351.431 28.3746C351.026 28.2972 350.608 28.3213 350.215 28.4448C349.822 28.5684 349.466 28.7875 349.178 29.0825C348.891 29.3776 348.681 29.7393 348.567 30.1355C348.4 31.0652 348.415 32.0187 348.612 32.9426C348.954 35.577 349.883 38.1011 351.33 40.329C352.777 42.5568 354.706 44.4317 356.973 45.8154C357.56 46.166 358.057 45.2273 357.472 44.8781Z" fill="#FAA346"/>
<path d="M343.818 75.6995L341.027 74.2148L336.148 83.3875L338.94 84.8722L343.818 75.6995Z" fill="#6666FC"/>
<path d="M302.074 45.2929L305.047 44.3833L302.059 34.613L299.085 35.5226L302.074 45.2929Z" fill="#30AB5D"/>
<path d="M248.87 143.448L249.78 146.422L259.55 143.433L258.64 140.46L248.87 143.448Z" fill="#F04C1A"/>
<path d="M171.006 41.2671C199.534 41.2671 222.66 64.393 222.661 92.9204C222.661 121.448 199.534 144.575 171.006 144.575C142.479 144.575 119.353 121.448 119.353 92.9204C119.353 64.3931 142.479 41.2673 171.006 41.2671ZM189.148 73.521C188.464 73.338 187.75 73.2914 187.048 73.3843C186.346 73.4772 185.669 73.7074 185.056 74.062C184.443 74.4167 183.906 74.8893 183.475 75.4517L164.895 99.6919L157.032 93.6616C155.895 92.8036 154.466 92.43 153.055 92.6216C151.644 92.8132 150.366 93.5541 149.5 94.6841C148.633 95.8142 148.249 97.2414 148.43 98.6538C148.611 100.066 149.344 101.35 150.467 102.224L162.607 111.51L162.663 111.553C163.592 112.25 164.723 112.626 165.885 112.625L165.893 112.616C166.722 112.618 167.541 112.43 168.285 112.065C169.029 111.7 169.679 111.169 170.184 110.512L192.039 82.0132C192.907 80.8773 193.291 79.4426 193.103 78.0249C192.915 76.6073 192.173 75.3225 191.039 74.4517L190.92 74.6108L191.036 74.4517C190.474 74.0206 189.832 73.704 189.148 73.521Z" fill="#30AB5D"/>
<path d="M136.496 54.424C135.999 54.4224 135.522 54.2239 135.17 53.8718C134.818 53.5197 134.62 53.0426 134.618 52.5448C134.616 52.397 134.633 52.2495 134.668 52.1059L144.392 9.27037C144.465 8.94767 144.623 8.64999 144.847 8.40715C145.072 8.16431 145.357 7.98483 145.673 7.88669C145.989 7.78856 146.326 7.77521 146.649 7.84797C146.972 7.92074 147.27 8.07708 147.513 8.30132L179.754 38.1552C179.997 38.3801 180.176 38.6647 180.274 38.9807C180.372 39.2966 180.386 39.6328 180.313 39.9556C180.241 40.2783 180.084 40.5763 179.86 40.8198C179.636 41.0633 179.352 41.2437 179.037 41.343L137.063 54.3396C136.88 54.3956 136.689 54.4241 136.496 54.424Z" fill="#9E58C5"/>
<path d="M162.866 23.1098L142.614 19.0797L142.933 17.6733L160.84 21.2328L162.866 23.1098Z" fill="#FAA346"/>
<path d="M178.813 37.8819L140.093 30.1772L140.412 28.7637L176.783 35.9971L178.813 37.8819Z" fill="#FAA346"/>
<path d="M164.961 45.2467L162.055 46.1452L137.577 41.2744L137.896 39.8608L164.961 45.2467Z" fill="#FAA346"/>
<path d="M61.6668 117.077C63.9613 116.505 65.3577 114.181 64.7856 111.887C64.2135 109.592 61.8896 108.196 59.5951 108.768C57.3005 109.34 55.9042 111.664 56.4763 113.958C57.0484 116.253 59.3723 117.649 61.6668 117.077Z" fill="#30AB5D"/>
<path d="M23.5951 15.611C25.234 15.2024 26.2313 13.5426 25.8227 11.9037C25.4141 10.2649 23.7543 9.26753 22.1154 9.67615C20.4765 10.0848 19.4792 11.7446 19.8878 13.3835C20.2964 15.0223 21.9563 16.0197 23.5951 15.611Z" fill="#F04C1A"/>
<path d="M41.2065 95.7009C42.8453 95.2923 43.8427 93.6324 43.434 91.9936C43.0254 90.3547 41.3656 89.3574 39.7267 89.766C38.0878 90.1746 37.0905 91.8344 37.4991 93.4733C37.9078 95.1122 39.5676 96.1095 41.2065 95.7009Z" fill="#30AB5D"/>
<path d="M56.9018 143.481C58.5406 143.072 59.538 141.412 59.1293 139.773C58.7207 138.134 57.0609 137.137 55.422 137.546C53.7832 137.954 52.7858 139.614 53.1945 141.253C53.6031 142.892 55.2629 143.889 56.9018 143.481Z" fill="#6666FC"/>
<path d="M4.44718 44.3469C6.08605 43.9383 7.08337 42.2784 6.67476 40.6396C6.26614 39.0007 4.60632 38.0034 2.96744 38.412C1.32857 38.8206 0.33125 40.4804 0.739867 42.1193C1.14848 43.7582 2.8083 44.7555 4.44718 44.3469Z" fill="#6666FC"/>
<path d="M85.3786 99.091C82.9623 98.2697 80.7751 96.8874 78.9961 95.0575C77.2172 93.2277 75.8972 91.0023 75.1444 88.5637C74.9346 87.8716 74.6292 87.0945 75.0816 86.4376C75.2462 86.1833 75.4921 85.9923 75.7793 85.8958C76.0665 85.7993 76.3779 85.8031 76.6626 85.9066C77.0046 86.0833 77.2789 86.3676 77.4433 86.7157C77.6077 87.0637 77.6531 87.4562 77.5724 87.8326C77.4917 88.209 77.2895 88.5484 76.9969 88.7985C76.7042 89.0486 76.3375 89.1954 75.9531 89.2165C74.051 89.4817 72.6357 87.891 71.4902 86.6178C68.8776 83.7188 65.8998 80.9239 62.1288 79.6513C58.6386 78.4737 54.4569 78.8337 51.6495 81.3754C51.1586 81.8202 51.8804 82.5496 52.3709 82.1072C55.1548 79.5863 59.4101 79.563 62.721 80.9674C64.6833 81.8466 66.4807 83.0552 68.0352 84.541C68.8479 85.2878 69.617 86.0804 70.3609 86.896C71.0545 87.7243 71.8202 88.4895 72.649 89.1825C74.0524 90.2591 76.1563 90.7756 77.6645 89.5806C77.9944 89.2901 78.2518 88.9265 78.416 88.5188C78.5802 88.111 78.6468 87.6705 78.6104 87.2325C78.5739 86.7944 78.4355 86.371 78.2062 85.996C77.9769 85.621 77.663 85.3048 77.2896 85.0728C76.9323 84.8961 76.5366 84.8108 76.1382 84.8246C75.7398 84.8384 75.351 84.9508 75.0067 85.1518C74.6623 85.3528 74.3733 85.6361 74.1654 85.9763C73.9575 86.3164 73.8372 86.7029 73.8153 87.101C73.857 88.0138 74.0763 88.9097 74.461 89.7386C75.35 92.1497 76.7686 94.3306 78.6124 96.1207C80.4561 97.9107 82.678 99.2643 85.1143 100.082C85.7431 100.286 86.0102 99.2949 85.3827 99.0911L85.3786 99.091Z" fill="#9E58C5"/>
<path d="M11.4853 78.2916L14.062 79.8398L19.1489 71.3739L16.5722 69.8257L11.4853 78.2916Z" fill="#FAA346"/>
<path d="M11.1028 149.696C13.3974 149.124 14.7937 146.8 14.2216 144.505C13.6495 142.211 11.3256 140.814 9.0311 141.386C6.73656 141.959 5.34024 144.282 5.91233 146.577C6.48443 148.872 8.8083 150.268 11.1028 149.696Z" fill="#30AB5D"/>
</svg>
