<svg width="364" height="227" viewBox="0 0 364 227" fill="none" xmlns="http://www.w3.org/2000/svg">
<path d="M64.5706 146.118C98.1475 146.118 125.367 142.419 125.367 137.856C125.367 133.294 98.1475 129.595 64.5706 129.595C30.9938 129.595 3.77441 133.294 3.77441 137.856C3.77441 142.419 30.9938 146.118 64.5706 146.118Z" fill="#1A1D1F"/>
<path opacity="0.1" d="M64.5706 144.792C92.7608 144.792 115.613 141.687 115.613 137.856C115.613 134.025 92.7608 130.92 64.5706 130.92C36.3805 130.92 13.5278 134.025 13.5278 137.856C13.5278 141.687 36.3805 144.792 64.5706 144.792Z" fill="black"/>
<path d="M271.993 227C322.807 227 364 221.402 364 214.497C364 207.592 322.807 201.994 271.993 201.994C221.179 201.994 179.986 207.592 179.986 214.497C179.986 221.402 221.179 227 271.993 227Z" fill="#1A1D1F"/>
<path d="M100.983 217.136C131.508 217.136 156.252 213.774 156.252 209.626C156.252 205.478 131.508 202.115 100.983 202.115C70.4588 202.115 45.7139 205.478 45.7139 209.626C45.7139 213.774 70.4588 217.136 100.983 217.136Z" fill="#1A1D1F"/>
<path d="M150.4 203.293C179.661 210.763 235.905 193.551 242.082 174.066" stroke="#2F2E41" stroke-width="2" stroke-miterlimit="10"/>
<path d="M100.658 84.1103C100.658 84.1103 142.923 72.4193 145.524 110.09C148.125 147.761 110.737 158.478 139.997 165.947" stroke="#2F2E41" stroke-width="2" stroke-miterlimit="10"/>
<path d="M59.8247 174.483C59.8247 174.483 72.5276 170.969 73.3094 182.291C74.0911 193.613 62.8539 196.834 71.6482 199.079" stroke="#FD774D" stroke-width="2" stroke-miterlimit="10"/>
<path d="M253.167 182.912L250.606 199.245C250.606 199.245 237.998 205.936 246.863 206.133C255.729 206.33 297.494 206.133 297.494 206.133C297.494 206.133 305.572 206.133 292.766 199.049L290.205 181.928L253.167 182.912Z" fill="#2F2E41"/>
<path opacity="0.1" d="M245.08 205.956C247.093 204.166 250.606 202.302 250.606 202.302L253.167 185.968L290.205 186.003L292.766 202.105C295.752 203.757 297.602 205.023 298.684 205.995C300.329 205.62 302.126 204.227 292.766 199.049L290.205 181.928L253.167 182.912L250.606 199.245C250.606 199.245 240.011 204.868 245.08 205.956Z" fill="black"/>
<path d="M349.055 69.0703H193.923C190.683 69.0703 188.056 71.6941 188.056 74.9306V179.314C188.056 182.551 190.683 185.175 193.923 185.175H349.055C352.295 185.175 354.922 182.551 354.922 179.314V74.9306C354.922 71.6941 352.295 69.0703 349.055 69.0703Z" fill="#2F2E41"/>
<path d="M349.307 75.2695H193.671V162.249H349.307V75.2695Z" fill="#3F3D56"/>
<path d="M271.489 73.4981C272.033 73.4981 272.474 73.0576 272.474 72.5142C272.474 71.9708 272.033 71.5303 271.489 71.5303C270.945 71.5303 270.504 71.9708 270.504 72.5142C270.504 73.0576 270.945 73.4981 271.489 73.4981Z" fill="#F2F2F2"/>
<path d="M354.922 169.137V179.315C354.922 180.084 354.77 180.846 354.475 181.557C354.18 182.268 353.748 182.914 353.203 183.459C352.659 184.003 352.012 184.435 351.3 184.729C350.588 185.023 349.825 185.175 349.055 185.175H193.923C193.153 185.175 192.39 185.023 191.678 184.729C190.966 184.435 190.319 184.003 189.774 183.459C189.229 182.914 188.797 182.268 188.503 181.557C188.208 180.846 188.056 180.084 188.056 179.315V169.137H354.922Z" fill="#2F2E41"/>
<path d="M315.028 216.759V218.727H209.038V217.153L209.184 216.759L211.796 209.675H312.861L315.028 216.759Z" fill="#2F2E41"/>
<path d="M355.816 214.833C355.623 215.658 354.894 216.527 353.247 217.35C347.337 220.302 335.319 216.563 335.319 216.563C335.319 216.563 326.06 214.988 326.06 210.856C326.32 210.678 326.591 210.517 326.872 210.374C329.357 209.061 337.595 205.82 352.204 210.511C353.28 210.848 354.241 211.478 354.981 212.329C355.573 213.021 356.037 213.899 355.816 214.833Z" fill="#2F2E41"/>
<path opacity="0.1" d="M355.816 214.833C348.582 217.601 342.134 217.808 335.517 213.217C332.179 210.903 329.148 210.33 326.872 210.373C329.357 209.06 337.596 205.82 352.204 210.511C353.28 210.848 354.242 211.477 354.981 212.328C355.573 213.02 356.037 213.898 355.816 214.833Z" fill="black"/>
<path d="M346.746 213.217C348.161 213.217 349.307 212.865 349.307 212.43C349.307 211.995 348.161 211.643 346.746 211.643C345.332 211.643 344.185 211.995 344.185 212.43C344.185 212.865 345.332 213.217 346.746 213.217Z" fill="#F2F2F2"/>
<path d="M271.489 180.944C273.557 180.944 275.232 179.27 275.232 177.205C275.232 175.14 273.557 173.466 271.489 173.466C269.422 173.466 267.746 175.14 267.746 177.205C267.746 179.27 269.422 180.944 271.489 180.944Z" fill="#F2F2F2"/>
<path opacity="0.1" d="M315.028 216.759V218.727H209.038V217.153L209.184 216.759H315.028Z" fill="black"/>
<path d="M102.934 51.6353H35.3101V130.225H102.934V51.6353Z" fill="#2F2E41"/>
<path d="M109.761 43.8413H28.4829V71.7698H109.761V43.8413Z" fill="#3F3D56"/>
<path d="M109.761 76.9658H28.4829V104.894H109.761V76.9658Z" fill="#3F3D56"/>
<path d="M109.761 110.09H28.4829V138.019H109.761V110.09Z" fill="#3F3D56"/>
<path opacity="0.4" d="M93.5055 48.7124H88.3037V53.9084H93.5055V48.7124Z" fill="#BA314F"/>
<path opacity="0.8" d="M100.983 48.7124H95.7812V53.9084H100.983V48.7124Z" fill="#BA314F"/>
<path d="M108.461 48.7124H103.259V53.9084H108.461V48.7124Z" fill="#BA314F"/>
<path opacity="0.4" d="M93.5055 81.5122H88.3037V86.7082H93.5055V81.5122Z" fill="#BA314F"/>
<path opacity="0.8" d="M100.983 81.5122H95.7812V86.7082H100.983V81.5122Z" fill="#BA314F"/>
<path d="M108.461 81.5122H103.259V86.7082H108.461V81.5122Z" fill="#BA314F"/>
<path opacity="0.4" d="M93.5055 114.312H88.3037V119.508H93.5055V114.312Z" fill="#BA314F"/>
<path opacity="0.8" d="M100.983 114.312H95.7812V119.508H100.983V114.312Z" fill="#BA314F"/>
<path d="M108.461 114.312H103.259V119.508H108.461V114.312Z" fill="#BA314F"/>
<path d="M102.934 200.371C117.119 200.371 128.618 188.884 128.618 174.715C128.618 160.546 117.119 149.06 102.934 149.06C88.7491 149.06 77.25 160.546 77.25 174.715C77.25 188.884 88.7491 200.371 102.934 200.371Z" fill="#2F2E41"/>
<path d="M99.0327 194.85H91.23V208.814H99.0327V194.85Z" fill="#2F2E41"/>
<path d="M114.638 194.85H106.835V208.814H114.638V194.85Z" fill="#2F2E41"/>
<path d="M97.7323 211.412C101.323 211.412 104.235 210.322 104.235 208.977C104.235 207.631 101.323 206.541 97.7323 206.541C94.1411 206.541 91.23 207.631 91.23 208.977C91.23 210.322 94.1411 211.412 97.7323 211.412Z" fill="#2F2E41"/>
<path d="M113.338 211.087C116.929 211.087 119.84 209.997 119.84 208.651C119.84 207.306 116.929 206.216 113.338 206.216C109.747 206.216 106.835 207.306 106.835 208.651C106.835 209.997 109.747 211.087 113.338 211.087Z" fill="#2F2E41"/>
<path d="M103.584 176.989C108.432 176.989 112.362 173.063 112.362 168.22C112.362 163.378 108.432 159.452 103.584 159.452C98.7362 159.452 94.8062 163.378 94.8062 168.22C94.8062 173.063 98.7362 176.989 103.584 176.989Z" fill="white"/>
<path d="M103.584 171.143C105.2 171.143 106.51 169.834 106.51 168.22C106.51 166.606 105.2 165.297 103.584 165.297C101.968 165.297 100.658 166.606 100.658 168.22C100.658 169.834 101.968 171.143 103.584 171.143Z" fill="#3F3D56"/>
<path d="M78.0194 150.857C75.9455 141.579 82.5748 132.205 92.8263 129.918C103.078 127.632 113.07 133.299 115.143 142.576C117.217 151.854 110.423 155.275 100.172 157.562C89.9202 159.848 80.0932 160.134 78.0194 150.857Z" fill="#BA314F"/>
<path d="M127.023 169.599C133.543 166.811 138.119 162.894 137.243 160.849C136.367 158.804 130.371 159.407 123.85 162.194C117.33 164.982 112.755 168.899 113.631 170.944C114.507 172.988 120.503 172.386 127.023 169.599Z" fill="#2F2E41"/>
<path d="M78.9059 186.81C85.4262 184.022 90.0018 180.105 89.1257 178.06C88.2496 176.016 82.2536 176.618 75.7333 179.406C69.213 182.193 64.6375 186.111 65.5136 188.155C66.3896 190.2 72.3856 189.598 78.9059 186.81Z" fill="#2F2E41"/>
<path d="M117.889 182.185C117.889 184.696 111.416 189.654 104.234 189.654C97.0521 189.654 90.2544 185.02 90.2544 182.509C90.2544 179.998 97.0521 180.561 104.234 180.561C111.416 180.561 117.889 179.674 117.889 182.185Z" fill="white"/>
</svg>
