<svg width="268" height="195" viewBox="0 0 268 195" fill="none" xmlns="http://www.w3.org/2000/svg">
<g clip-path="url(#clip0_151_2)">
<path opacity="0.1" d="M263.459 155.805C256.821 169.505 243.335 178.666 229.365 184.707C218.179 189.512 206.355 192.668 194.263 194.075C191.947 194.35 189.624 194.564 187.293 194.715C181.337 195.103 175.361 195.097 169.406 194.695C165.824 194.457 162.254 194.076 158.697 193.553C146.337 191.749 134.287 188.24 122.891 183.125C119.602 181.643 116.38 180.026 113.224 178.273C107.953 175.351 102.903 172.048 98.1137 168.39C97.054 167.58 96.0077 166.753 94.9747 165.908L94.5498 165.56C93.7375 164.89 92.9328 164.206 92.1156 163.541C90.7572 162.403 89.3152 161.368 87.8019 160.446C87.6995 160.386 87.597 160.326 87.492 160.269C87.2121 160.106 86.9272 159.954 86.6373 159.809C86.0401 159.508 85.4278 159.237 84.8029 158.999C81.9163 157.899 78.8248 157.499 75.6908 157.567C75.1709 157.567 74.6511 157.602 74.1288 157.637C73.399 157.687 72.6667 157.762 71.937 157.857L71.667 157.894C69.3416 158.223 67.0424 158.717 64.7867 159.371C61.3028 160.371 57.8814 161.621 54.4375 162.748C52.9755 163.231 51.5109 163.691 50.0339 164.103L49.709 164.193C47.6083 164.784 45.4699 165.232 43.3085 165.533C38.397 166.161 33.4085 165.759 28.6607 164.353L28.4957 164.306L28.1908 164.216L27.7735 164.086C27.0737 163.866 26.3797 163.625 25.6916 163.363L25.2743 163.203C24.6078 162.947 23.9555 162.671 23.3174 162.376L22.9 162.186C22.2336 161.876 21.5813 161.549 20.9431 161.204C20.7132 161.084 20.4858 160.954 20.2608 160.831C19.5811 160.451 18.9146 160.053 18.2615 159.636C17.5684 159.195 16.8902 158.734 16.2271 158.254C15.9206 158.034 15.6173 157.808 15.3174 157.577C13.5886 156.254 11.9696 154.794 10.4764 153.21C10.394 153.128 10.3165 153.043 10.239 152.96C9.84165 152.53 9.45177 152.093 9.07439 151.645C8.93444 151.48 8.79448 151.315 8.65702 151.145C8.20883 150.599 7.77647 150.04 7.35993 149.468C7.29745 149.386 7.23747 149.301 7.17749 149.218C5.46988 146.856 4.05421 144.297 2.96133 141.595C2.92634 141.512 2.89385 141.427 2.86386 141.345C2.53063 140.487 2.22656 139.614 1.95165 138.728C1.83919 138.358 1.73172 137.978 1.63675 137.608C1.60426 137.498 1.57427 137.385 1.54678 137.275C0.167215 131.844 0.00976562 126.197 0.00976562 120.583C0.00976562 119.929 0.00976562 119.275 0.00976562 118.621C0.0497529 109.54 0.189708 100.305 1.52928 91.3487C1.52928 91.2862 1.54678 91.2237 1.55677 91.1637C2.00512 88.1487 2.61498 85.16 3.3837 82.2103C4.18824 79.1154 5.21645 76.0829 6.46022 73.137C9.54174 65.8883 14.0228 59.2919 18.9987 53.178C24.9968 45.8219 31.8697 39.0331 39.5247 33.4316C40.6244 32.6267 41.739 31.8452 42.8687 31.087L43.391 30.7446C43.5735 30.6221 43.7559 30.4946 43.9383 30.3871C44.3132 30.1372 44.6881 29.9022 45.068 29.6648L45.4928 29.3998L46.3026 28.8999L46.5525 28.7574L46.9849 28.5075L47.4122 28.2575C47.9121 27.9626 48.4177 27.6743 48.9292 27.3927C51.1136 26.1746 53.3495 25.0614 55.6371 24.0533C56.3119 23.755 56.9909 23.4675 57.674 23.1909C60.7754 21.9276 63.9613 20.8828 67.2085 20.064C68.4081 19.7607 69.6152 19.4941 70.8298 19.2641C72.2627 18.9875 73.7031 18.7584 75.1509 18.5768C77.455 18.2868 79.7722 18.1141 82.0937 18.0594C98.4186 17.6619 114.908 22.976 127.702 33.1616C132.8 37.2209 137.381 42.0276 143.107 45.1395C148.105 47.849 153.956 48.9713 159.309 46.8392C163.733 45.077 166.612 44.2022 171.58 44.4696C181.861 45.0488 191.997 47.1687 201.648 50.7585C202.038 50.901 202.428 51.0484 202.815 51.1959C227.985 60.8317 249.626 79.9657 260.867 104.554C261.164 105.204 261.453 105.859 261.734 106.518C268.44 122.178 270.859 140.537 263.459 155.805Z" fill="#6C63FF"/>
<path opacity="0.1" d="M50.0266 69.3349V164.108L49.7017 164.198C47.601 164.789 45.4626 165.236 43.3012 165.538C38.3896 166.166 33.4011 165.764 28.6534 164.358L28.4884 164.31L28.1835 164.22L27.7661 164.09C27.0664 163.87 26.3724 163.63 25.6843 163.368L25.2669 163.208C24.6005 162.951 23.9482 162.676 23.3101 162.381L22.8927 162.191C22.2262 161.881 21.5739 161.553 20.9358 161.208C20.7059 161.088 20.4784 160.958 20.2535 160.836C19.5737 160.456 18.9073 160.058 18.2542 159.641C17.561 159.2 16.8829 158.739 16.2198 158.259C15.9132 158.039 15.61 157.813 15.3101 157.582C13.5813 156.259 11.9623 154.799 10.4691 153.215C10.3866 153.132 10.3092 153.047 10.2317 152.965C9.83432 152.535 9.44445 152.098 9.06707 151.65C8.92711 151.485 8.78716 151.32 8.6497 151.15C8.20151 150.604 7.76915 150.045 7.35261 149.473C7.29013 149.391 7.23015 149.306 7.17017 149.223C5.46255 146.861 4.04688 144.301 2.95401 141.599C2.91902 141.517 2.88653 141.432 2.85654 141.349C2.52331 140.491 2.21924 139.619 1.94433 138.732C1.83186 138.363 1.72439 137.983 1.62943 137.613C1.59694 137.503 1.56694 137.39 1.53945 137.28C0.159891 131.849 0.00244141 126.202 0.00244141 120.588C0.00244141 119.933 0.00244141 119.279 0.00244141 118.626C0.0424287 109.545 0.182384 100.309 1.52196 91.3535C1.52196 91.291 1.53945 91.2285 1.54945 91.1685C1.9978 88.1535 2.60765 85.1647 3.37637 82.2151H28.8983V69.3349H33.9867V58.9893H44.9382V69.3349H50.0266Z" fill="#6C63FF"/>
<path opacity="0.1" d="M263.459 155.804C256.821 169.504 243.335 178.665 229.365 184.707C218.179 189.512 206.356 192.667 194.264 194.075C191.948 194.35 189.624 194.563 187.293 194.715C181.337 195.103 175.362 195.097 169.406 194.695C165.824 194.457 162.254 194.076 158.697 193.553C146.337 191.749 134.287 188.24 122.891 183.125C119.602 181.643 116.38 180.026 113.224 178.273C107.953 175.351 102.903 172.048 98.114 168.39C97.0543 167.58 96.008 166.752 94.975 165.908L94.5501 165.56C93.7379 164.89 92.9331 164.205 92.1159 163.541C90.7575 162.403 89.3156 161.368 87.8023 160.446C87.6998 160.386 87.5973 160.326 87.4924 160.269C87.2125 160.106 86.9275 159.954 86.6376 159.809C86.0404 159.508 85.4281 159.237 84.8032 158.999V120.228H131.186V128.859H151.542V65.7256H175.502V90.9711H187.353V76.0238H197.145V60.0566H201.644V50.7583C202.034 50.9008 202.423 51.0482 202.811 51.1957V60.0566H207.189V76.0338H216.974V90.9811H231.402V147.928H254.334V106.513H261.725C268.44 122.178 270.859 140.537 263.459 155.804Z" fill="#6C63FF"/>
<path opacity="0.1" d="M169.411 75.2266H158.702V85.9371H169.411V75.2266Z" fill="#6C63FF"/>
<path opacity="0.1" d="M169.411 97.4277H158.702V108.138H169.411V97.4277Z" fill="#6C63FF"/>
<path opacity="0.1" d="M169.411 119.631H158.702V130.341H169.411V119.631Z" fill="#6C63FF"/>
<path opacity="0.1" d="M169.411 141.834H158.702V152.545H169.411V141.834Z" fill="#6C63FF"/>
<path opacity="0.1" d="M169.411 164.036H158.702V174.746H169.411V164.036Z" fill="#6C63FF"/>
<path opacity="0.1" d="M169.411 186.234V194.692C165.829 194.454 162.259 194.073 158.702 193.55V186.234H169.411Z" fill="#6C63FF"/>
<path opacity="0.1" d="M125.82 134.071H88.3345V138.922H125.82V134.071Z" fill="#6C63FF"/>
<path opacity="0.1" d="M125.82 148.806H88.3345V153.657H125.82V148.806Z" fill="#6C63FF"/>
<path opacity="0.1" d="M125.82 163.541V168.39H98.1187C97.059 167.58 96.0127 166.752 94.9797 165.908L94.5548 165.56C93.7426 164.89 92.9378 164.205 92.1206 163.541H125.82Z" fill="#6C63FF"/>
<path opacity="0.1" d="M125.82 178.273V183.125H122.896C119.607 181.643 116.385 180.026 113.229 178.273H125.82Z" fill="#6C63FF"/>
<path opacity="0.1" d="M194.268 104.229H187.298V111.2H194.268V104.229Z" fill="#6C63FF"/>
<path opacity="0.1" d="M43.3165 71.7397H36.3462V78.711H43.3165V71.7397Z" fill="#6C63FF"/>
<path opacity="0.1" d="M43.3165 87.9365H36.3462V94.9078H43.3165V87.9365Z" fill="#6C63FF"/>
<path opacity="0.1" d="M43.3165 104.131H36.3462V111.103H43.3165V104.131Z" fill="#6C63FF"/>
<path opacity="0.1" d="M43.3165 120.329H36.3462V127.3H43.3165V120.329Z" fill="#6C63FF"/>
<path opacity="0.1" d="M43.3165 136.525H36.3462V143.497H43.3165V136.525Z" fill="#6C63FF"/>
<path opacity="0.1" d="M43.3165 152.72H36.3462V159.691H43.3165V152.72Z" fill="#6C63FF"/>
<path opacity="0.1" d="M220.882 104.229H213.912V111.2H220.882V104.229Z" fill="#6C63FF"/>
<path opacity="0.1" d="M194.268 121.426H187.298V128.397H194.268V121.426Z" fill="#6C63FF"/>
<path opacity="0.1" d="M220.882 121.426H213.912V128.397H220.882V121.426Z" fill="#6C63FF"/>
<path opacity="0.1" d="M194.268 138.625H187.298V145.596H194.268V138.625Z" fill="#6C63FF"/>
<path opacity="0.1" d="M220.882 138.625H213.912V145.596H220.882V138.625Z" fill="#6C63FF"/>
<path opacity="0.1" d="M194.268 155.825H187.298V162.796H194.268V155.825Z" fill="#6C63FF"/>
<path opacity="0.1" d="M220.882 155.825H213.912V162.796H220.882V155.825Z" fill="#6C63FF"/>
<path opacity="0.1" d="M194.268 173.021H187.298V179.993H194.268V173.021Z" fill="#6C63FF"/>
<path opacity="0.1" d="M220.882 173.021H213.912V179.993H220.882V173.021Z" fill="#6C63FF"/>
<path opacity="0.1" d="M187.298 194.715V190.218H194.268V194.075L187.298 194.715Z" fill="#6C63FF"/>
<path opacity="0.1" d="M1.52441 91.1709V95.1702H28.1835V91.1709H1.52441ZM3.89866 94.9202H1.94178V91.4209H3.89866V94.9202ZM6.27291 94.9202H4.31603V91.4209H6.27291V94.9202ZM8.64716 94.9202H6.69028V91.4209H8.64716V94.9202ZM11.0214 94.9202H9.06452V91.4209H11.0214V94.9202ZM13.3956 94.9202H11.4388V91.4209H13.3956V94.9202ZM15.7699 94.9202H13.813V91.4209H15.7699V94.9202ZM18.1441 94.9202H16.1873V91.4209H18.1441V94.9202ZM20.5184 94.9202H18.5615V91.4209H20.5184V94.9202ZM22.8926 94.9202H20.9358V91.4209H22.8926V94.9202ZM25.2669 94.9202H23.31V91.4209H25.2669V94.9202ZM27.7661 94.9202H25.6843V91.4209H27.7661V94.9202Z" fill="#6C63FF"/>
<path opacity="0.1" d="M1.52441 102.784V106.771H28.1835V102.784H1.52441ZM3.89866 106.521H1.94178V103.034H3.89866V106.521ZM6.27291 106.521H4.31603V103.034H6.27291V106.521ZM8.64716 106.521H6.69028V103.034H8.64716V106.521ZM11.0214 106.521H9.06452V103.034H11.0214V106.521ZM13.3956 106.521H11.4388V103.034H13.3956V106.521ZM15.7699 106.521H13.813V103.034H15.7699V106.521ZM18.1441 106.521H16.1873V103.034H18.1441V106.521ZM20.5184 106.521H18.5615V103.034H20.5184V106.521ZM22.8926 106.521H20.9358V103.034H22.8926V106.521ZM25.2669 106.521H23.31V103.034H25.2669V106.521ZM27.7661 106.521H25.6843V103.034H27.7661V106.521Z" fill="#6C63FF"/>
<path opacity="0.1" d="M1.52441 114.395V118.381H28.1835V114.395H1.52441ZM3.89866 118.131H1.94178V114.644H3.89866V118.131ZM6.27291 118.131H4.31603V114.644H6.27291V118.131ZM8.64716 118.131H6.69028V114.644H8.64716V118.131ZM11.0214 118.131H9.06452V114.644H11.0214V118.131ZM13.3956 118.131H11.4388V114.644H13.3956V118.131ZM15.7699 118.131H13.813V114.644H15.7699V118.131ZM18.1441 118.131H16.1873V114.644H18.1441V118.131ZM20.5184 118.131H18.5615V114.644H20.5184V118.131ZM22.8926 118.131H20.9358V114.644H22.8926V118.131ZM25.2669 118.131H23.31V114.644H25.2669V118.131ZM27.7661 118.131H25.6843V114.644H27.7661V118.131Z" fill="#6C63FF"/>
<path opacity="0.1" d="M1.52441 125.995V129.994H28.1835V125.995H1.52441ZM3.89866 129.744H1.94178V126.245H3.89866V129.744ZM6.27291 129.744H4.31603V126.245H6.27291V129.744ZM8.64716 129.744H6.69028V126.245H8.64716V129.744ZM11.0214 129.744H9.06452V126.245H11.0214V129.744ZM13.3956 129.744H11.4388V126.245H13.3956V129.744ZM15.7699 129.744H13.813V126.245H15.7699V129.744ZM18.1441 129.744H16.1873V126.245H18.1441V129.744ZM20.5184 129.744H18.5615V126.245H20.5184V129.744ZM22.8926 129.744H20.9358V126.245H22.8926V129.744ZM25.2669 129.744H23.31V126.245H25.2669V129.744ZM27.7661 129.744H25.6843V126.245H27.7661V129.744Z" fill="#6C63FF"/>
<path opacity="0.1" d="M1.62695 137.615C1.72192 137.99 1.82939 138.365 1.94185 138.735V137.865H3.89873V141.365H2.85406C2.88406 141.447 2.91654 141.532 2.95153 141.615H28.1935V137.615H1.62695ZM6.27298 141.365H4.3161V137.865H6.27298V141.365ZM8.64723 141.365H6.69035V137.865H8.64723V141.365ZM11.0215 141.365H9.06459V137.865H11.0215V141.365ZM13.3957 141.365H11.4388V137.865H13.3957V141.365ZM15.77 141.365H13.8131V137.865H15.77V141.365ZM18.1442 141.365H16.1873V137.865H18.1442V141.365ZM20.5185 141.365H18.5616V137.865H20.5185V141.365ZM22.8927 141.365H20.9358V137.865H22.8927V141.365ZM25.267 141.365H23.3101V137.865H25.267V141.365ZM27.7662 141.365H25.6843V137.865H27.7662V141.365Z" fill="#6C63FF"/>
<path opacity="0.1" d="M7.16797 149.226C7.22795 149.308 7.28793 149.393 7.35041 149.476H8.6475V151.153C8.78496 151.32 8.92491 151.485 9.06487 151.653V149.478H11.0217V152.977H10.2295C10.307 153.06 10.3844 153.145 10.4669 153.227H28.1838V149.228L7.16797 149.226ZM13.396 152.975H11.4391V149.476H13.396V152.975ZM15.7702 152.975H13.8134V149.476H15.7702V152.975ZM18.1445 152.975H16.1876V149.476H18.1445V152.975ZM20.5187 152.975H18.5619V149.476H20.5187V152.975ZM22.893 152.975H20.9361V149.476H22.893V152.975ZM25.2672 152.975H23.3104V149.476H25.2672V152.975ZM27.7664 152.975H25.6846V149.476H27.7664V152.975Z" fill="#6C63FF"/>
<path opacity="0.1" d="M20.2534 160.836C20.4783 160.963 20.7058 161.086 20.9357 161.208V161.086H22.8926V162.191L23.31 162.381V161.086H25.2668V163.208L25.6842 163.368V161.086H27.766V164.085L28.1834 164.215V160.836H20.2534Z" fill="#6C63FF"/>
<path opacity="0.1" d="M102.457 56.5498C102.457 56.5498 96.4993 56.1898 97.2091 60.3641C97.1727 60.5762 97.2044 60.7945 97.2995 60.9875C97.3947 61.1806 97.5485 61.3386 97.739 61.4389C97.739 61.4389 97.739 61.129 98.3488 61.2339C98.5626 61.2691 98.7799 61.2791 98.9961 61.2639C99.2884 61.2447 99.5666 61.1306 99.7883 60.939C99.7883 60.939 101.463 60.2466 102.115 57.5096C102.115 57.5096 102.595 56.9122 102.577 56.7597L101.578 57.1897C101.578 57.1897 101.923 57.9145 101.653 58.5169C101.653 58.5169 101.62 57.2172 101.425 57.2471C101.388 57.2471 100.903 57.4971 100.903 57.4971C100.903 57.4971 101.495 58.7619 101.048 59.6792C101.048 59.6792 101.218 58.1245 100.721 57.5896L99.9957 58.007C99.9957 58.007 100.688 59.3118 100.218 60.3766C100.218 60.3766 100.341 58.7444 99.8483 58.1095L99.206 58.6094C99.206 58.6094 99.8558 59.8942 99.4559 60.779C99.4559 60.779 99.4034 58.8769 99.0635 58.7319C98.8196 58.9375 98.6022 59.1726 98.4162 59.4318C98.4162 59.4318 98.8611 60.3641 98.5862 60.8565C98.5862 60.8565 98.4162 59.5917 98.2763 59.5842C98.2763 59.5842 97.719 60.4241 97.6615 60.999C97.6872 60.4656 97.8526 59.9484 98.1413 59.4992C97.8194 59.5602 97.5222 59.714 97.2866 59.9417C97.2866 59.9417 97.3741 59.3493 98.2863 59.2968C98.2863 59.2968 98.7486 58.6619 98.8736 58.6219C98.8736 58.6219 97.9714 58.5469 97.424 58.7894C97.424 58.7894 97.9064 58.2295 99.0385 58.4844L99.6708 57.967C99.6708 57.967 98.4837 57.8046 97.9814 57.9845C97.9814 57.9845 98.5587 57.4846 99.8408 57.8495L100.531 57.4371C100.001 57.3211 99.458 57.274 98.9161 57.2971C98.9161 57.2971 99.5509 56.9547 100.733 57.3271L101.233 57.1047C101.233 57.1047 100.483 56.9597 100.276 56.9372C100.068 56.9147 100.046 56.8547 100.046 56.8547C100.515 56.7764 100.997 56.8301 101.438 57.0097C101.438 57.0097 102.475 56.6148 102.457 56.5498Z" fill="#6C63FF"/>
<path opacity="0.1" d="M86.8176 76.8635C86.8176 76.8635 84.7807 82.4725 88.9844 82.9849C89.1769 83.0796 89.3944 83.111 89.6058 83.0746C89.8172 83.0383 90.0117 82.936 90.1615 82.7824C90.1615 82.7824 89.8691 82.6849 90.139 82.1375C90.2336 81.9431 90.3057 81.7384 90.3539 81.5276C90.4172 81.2413 90.3856 80.9421 90.264 80.6753C90.264 80.6753 90.0765 78.8731 87.6373 77.4709C87.6373 77.4709 87.2025 76.8385 87.05 76.8135L87.175 77.9008C87.175 77.9008 87.9672 77.7758 88.4695 78.2057C88.4695 78.2057 87.2199 77.8683 87.1875 78.0633C87.1875 78.1007 87.2799 78.6357 87.2799 78.6357C87.2799 78.6357 88.6595 78.4257 89.4117 79.1156C89.4117 79.1156 87.9672 78.5107 87.3149 78.8381L87.5099 79.633C87.5099 79.633 88.9569 79.343 89.8441 80.0929C89.8441 80.0929 88.3146 79.5155 87.5648 79.8054L87.8622 80.5553C87.8622 80.5553 89.2793 80.3054 90.0141 80.9277C90.0141 80.9277 88.1746 80.4278 87.9422 80.7228C88.0702 81.0138 88.233 81.2883 88.4271 81.5401C88.4271 81.5401 89.4492 81.3802 89.8416 81.7901C89.8416 81.7901 88.5795 81.5926 88.5345 81.7226C88.5345 81.7226 89.1818 82.4975 89.7166 82.7224C89.2144 82.5447 88.7673 82.2388 88.4196 81.8351C88.3864 82.1619 88.4499 82.4913 88.602 82.7824C88.602 82.7824 88.0572 82.5325 88.2646 81.6451C88.2646 81.6451 87.7848 81.0227 87.7848 80.8952C87.7848 80.8952 87.4549 81.7376 87.5348 82.3325C87.5348 82.3325 87.135 81.7101 87.6998 80.6978L87.3849 79.9479C87.3849 79.9479 86.885 81.0402 86.92 81.5751C86.92 81.5751 86.6101 80.8777 87.3199 79.7504L87.1225 78.9731C86.8609 79.4452 86.6618 79.9494 86.5302 80.4728C86.5302 80.4728 86.3802 79.7654 87.0725 78.7381L87 78.2032C87 78.2032 86.6501 78.8731 86.5676 79.0756C86.4852 79.278 86.4227 79.2705 86.4227 79.2705C86.4803 78.7978 86.668 78.3504 86.965 77.9783C86.965 77.9783 86.885 76.8635 86.8176 76.8635Z" fill="#6C63FF"/>
<path opacity="0.1" d="M126.312 72.1345C126.312 72.1345 124.278 77.7535 128.479 78.2534C128.672 78.348 128.89 78.3791 129.102 78.3423C129.314 78.3055 129.509 78.2027 129.659 78.0485C129.659 78.0485 129.364 77.951 129.636 77.4061C129.732 77.2113 129.803 77.0057 129.849 76.7937C129.913 76.5076 129.882 76.2085 129.761 75.9413C129.761 75.9413 129.574 74.1392 127.135 72.7369C127.135 72.7369 126.697 72.107 126.545 72.082L126.672 73.1668C126.672 73.1668 127.464 73.0444 127.967 73.4743C127.967 73.4743 126.717 73.1368 126.682 73.3293C126.682 73.3693 126.775 73.9017 126.775 73.9017C126.775 73.9017 128.154 73.6942 128.909 74.3816C128.909 74.3816 127.464 73.7792 126.81 74.1042L127.007 74.9015C127.007 74.9015 128.454 74.6091 129.341 75.3614C129.341 75.3614 127.809 74.7815 127.06 75.0715L127.357 75.8214C127.357 75.8214 128.774 75.5714 129.509 76.1938C129.509 76.1938 127.672 75.6939 127.437 75.9913C127.569 76.2835 127.737 76.5581 127.937 76.8087C127.937 76.8087 128.956 76.6462 129.351 77.0586C129.351 77.0586 128.089 76.8612 128.044 76.9936C128.044 76.9936 128.689 77.766 129.224 77.9935C128.722 77.8165 128.275 77.5104 127.929 77.1061C127.896 77.4327 127.959 77.7618 128.109 78.0535C128.109 78.0535 127.567 77.8035 127.774 76.9187C127.774 76.9187 127.294 76.2938 127.292 76.1688C127.292 76.1688 126.965 77.0136 127.042 77.606C127.042 77.606 126.642 76.9862 127.207 75.9713L126.892 75.2215C126.892 75.2215 126.392 76.3138 126.427 76.8462C126.427 76.8462 126.117 76.1513 126.827 75.024L126.627 74.2441C126.366 74.7163 126.167 75.2204 126.035 75.7439C126.035 75.7439 125.887 75.0365 126.58 74.0092L126.507 73.4743C126.507 73.4743 126.157 74.1442 126.072 74.3466C125.987 74.5491 125.927 74.5416 125.927 74.5416C125.987 74.0689 126.175 73.6217 126.472 73.2493C126.472 73.2493 126.382 72.137 126.312 72.1345Z" fill="#6C63FF"/>
<path opacity="0.1" d="M69.8552 117.996C69.8552 117.996 67.8183 123.608 72.022 124.12C72.2146 124.215 72.4324 124.246 72.6439 124.209C72.8554 124.172 73.0498 124.069 73.1991 123.915C73.1991 123.915 72.9067 123.818 73.1766 123.273C73.2727 123.078 73.3449 122.872 73.3915 122.66C73.4561 122.374 73.4244 122.075 73.3016 121.808C73.3016 121.808 73.1141 120.006 70.6749 118.606C70.6749 118.606 70.24 117.974 70.0876 117.949L70.2125 119.034C70.2125 119.034 71.0073 118.911 71.5071 119.341C71.5071 119.341 70.2575 119.004 70.225 119.196C70.225 119.236 70.3175 119.768 70.3175 119.768C70.3175 119.768 71.6971 119.561 72.4493 120.248C72.4493 120.248 71.0048 119.646 70.3525 119.971L70.5474 120.768C70.5474 120.768 71.9945 120.476 72.8817 121.228C72.8817 121.228 71.3522 120.648 70.6024 120.938L70.8998 121.688C70.8998 121.688 72.3169 121.438 73.0517 122.06C73.0517 122.06 71.2147 121.561 70.9798 121.858C71.1078 122.149 71.2706 122.424 71.4647 122.675C71.4647 122.675 72.4868 122.513 72.8817 122.925C72.8817 122.925 71.6171 122.728 71.5721 122.86C71.5721 122.86 72.2194 123.633 72.7542 123.86C72.2519 123.684 71.8046 123.379 71.4572 122.975C71.4241 123.301 71.4875 123.63 71.6396 123.92C71.6396 123.92 71.0948 123.67 71.3022 122.785C71.3022 122.785 70.8249 122.16 70.8224 122.035C70.8224 122.035 70.4925 122.88 70.5724 123.473C70.5724 123.473 70.1726 122.853 70.7374 121.838L70.4225 121.088C70.4225 121.088 69.9226 122.18 69.9601 122.713C69.9601 122.713 69.6502 122.018 70.36 120.891L70.1601 120.113C69.898 120.585 69.6989 121.089 69.5678 121.613C69.5678 121.613 69.4178 120.903 70.1101 119.878L70.0376 119.341C70.0376 119.341 69.6877 120.011 69.6052 120.213C69.5228 120.416 69.4603 120.408 69.4603 120.408C69.5181 119.935 69.7068 119.488 70.0051 119.116C70.0051 119.116 69.9226 117.996 69.8552 117.996Z" fill="#6C63FF"/>
<path opacity="0.1" d="M61.7727 65.1081C61.7727 65.1081 59.7383 70.7171 63.9395 71.2295C64.1325 71.324 64.3503 71.3553 64.5621 71.319C64.7738 71.2827 64.9687 71.1805 65.1191 71.027C65.1191 71.027 64.8242 70.9296 65.0966 70.3822C65.1909 70.1869 65.2622 69.9814 65.3091 69.7698C65.3731 69.4845 65.3423 69.1862 65.2216 68.9199C65.2216 68.9199 65.0342 67.1177 62.5924 65.7155C62.5924 65.7155 62.1576 65.0831 62.0051 65.0581L62.1326 66.1454C62.1326 66.1454 62.9248 66.0204 63.4247 66.4504C63.4247 66.4504 62.1751 66.1129 62.1426 66.3079C62.1426 66.3454 62.2351 66.8803 62.2351 66.8803C62.2351 66.8803 63.6146 66.6703 64.3694 67.3602C64.3694 67.3602 62.9248 66.7553 62.27 67.0827L62.465 67.8776C62.465 67.8776 63.912 67.5852 64.8017 68.3375C64.8017 68.3375 63.2697 67.7576 62.52 68.0501L62.8174 68.7999C62.8174 68.7999 64.2344 68.55 64.9692 69.1749C64.9692 69.1749 63.1323 68.675 62.8973 68.9699C63.0253 69.2609 63.1881 69.5354 63.3822 69.7873C63.3822 69.7873 64.4044 69.6273 64.7992 70.0372C64.7992 70.0372 63.5371 69.8397 63.4922 69.9697C63.4922 69.9697 64.137 70.7446 64.6718 70.9695C64.1699 70.7912 63.7229 70.4854 63.3747 70.0822C63.3416 70.409 63.405 70.7384 63.5571 71.0295C63.5571 71.0295 63.0123 70.7796 63.2222 69.8922C63.2222 69.8922 62.7424 69.2698 62.7399 69.1424C62.7399 69.1424 62.4125 69.9847 62.49 70.5796C62.49 70.5796 62.0876 69.9572 62.6549 68.9449L62.3375 68.195C62.3375 68.195 61.8377 69.2873 61.8752 69.8222C61.8752 69.8222 61.5653 69.1249 62.275 67.9976L62.0751 67.2202C61.8136 67.6924 61.6144 68.1965 61.4828 68.7199C61.4828 68.7199 61.3353 68.0126 62.0251 66.9853L61.9551 66.4504C61.9551 66.4504 61.6028 67.1202 61.5203 67.3202C61.4378 67.5202 61.3753 67.5177 61.3753 67.5177C61.4331 67.0446 61.6218 66.597 61.9202 66.2254C61.9202 66.2254 61.8427 65.1081 61.7727 65.1081Z" fill="#6C63FF"/>
<path opacity="0.1" d="M76.8779 95.6529C76.8779 95.6529 78.4499 101.402 82.1787 99.4022C82.3906 99.3685 82.5865 99.2686 82.7382 99.1169C82.8899 98.9651 82.9898 98.7693 83.0235 98.5573C83.0235 98.5573 82.7286 98.6473 82.6361 98.0449C82.6009 97.8311 82.5405 97.6222 82.4562 97.4225C82.3454 97.1512 82.1476 96.9243 81.8938 96.7777C81.8938 96.7777 80.7017 95.4129 77.8951 95.6729C77.8951 95.6729 77.1753 95.4104 77.0354 95.4779L77.7651 96.2902C77.7651 96.2902 78.3425 95.7328 78.9998 95.7903C78.9998 95.7903 77.7776 96.2403 77.8676 96.4127C77.8876 96.4477 78.2725 96.8276 78.2725 96.8276C78.2725 96.8276 79.2722 95.8603 80.2918 95.9878C80.2918 95.9878 78.7648 96.3277 78.4199 96.9726L79.0372 97.51C79.0372 97.51 80.0519 96.4377 81.2116 96.5377C81.2116 96.5377 79.6246 96.9476 79.1797 97.6175L79.8595 98.0649C79.8595 98.0649 80.8592 97.0376 81.8339 97.1301C81.8339 97.1301 80.0494 97.7875 80.0219 98.1574C80.2949 98.3216 80.587 98.4517 80.8917 98.5448C80.8917 98.5448 81.6414 97.825 82.1887 97.9274C82.1887 97.9274 81.0416 98.4949 81.0816 98.6273C81.0816 98.6273 82.0563 98.8773 82.6186 98.7573C82.1066 98.9025 81.5655 98.9111 81.0491 98.7823C81.2099 99.0684 81.4516 99.3006 81.7439 99.4497C81.7439 99.4497 81.1541 99.5572 80.8142 98.7148C80.8142 98.7148 80.0644 98.4824 79.9844 98.3774C79.9844 98.3774 80.2044 99.2572 80.6092 99.6971C80.6092 99.6971 79.9245 99.4197 79.802 98.2649L79.1097 97.8325C79.1097 97.8325 79.3372 99.0098 79.667 99.4272C79.667 99.4272 79.0123 99.0372 78.9423 97.7075L78.3325 97.1876C78.3919 97.727 78.5212 98.2563 78.7173 98.7623C78.7173 98.7623 78.19 98.2624 78.1625 97.0326L77.7951 96.6352C77.7951 96.6352 77.8951 97.3851 77.9426 97.5975C77.9901 97.81 77.9426 97.8475 77.9426 97.8475C77.7175 97.4276 77.6136 96.9533 77.6427 96.4777C77.6427 96.4777 76.9354 95.6154 76.8779 95.6529Z" fill="#6C63FF"/>
<path opacity="0.1" d="M119.524 100.787C119.524 100.787 121.096 106.536 124.823 104.536C125.035 104.503 125.232 104.404 125.384 104.252C125.536 104.1 125.636 103.904 125.67 103.691C125.67 103.691 125.373 103.781 125.28 103.191C125.247 102.977 125.187 102.768 125.103 102.569C124.99 102.298 124.792 102.071 124.538 101.924C124.538 101.924 123.346 100.559 120.539 100.822C120.539 100.822 119.819 100.557 119.682 100.624L120.409 101.437C120.409 101.437 120.986 100.879 121.644 100.937C121.644 100.937 120.422 101.387 120.514 101.559C120.532 101.594 120.919 101.974 120.919 101.974C120.919 101.974 121.919 101.007 122.938 101.134C122.938 101.134 121.409 101.474 121.064 102.119L121.684 102.656C121.684 102.656 122.683 101.584 123.856 101.684C123.856 101.684 122.271 102.094 121.826 102.764L122.506 103.211C122.506 103.211 123.506 102.184 124.478 102.276C124.478 102.276 122.693 102.934 122.668 103.304C122.94 103.468 123.232 103.598 123.536 103.691C123.536 103.691 124.285 102.971 124.833 103.074C124.833 103.074 123.688 103.641 123.726 103.774C123.726 103.774 124.7 104.024 125.265 103.904C124.752 104.049 124.21 104.057 123.693 103.929C123.855 104.214 124.096 104.446 124.388 104.596C124.388 104.596 123.798 104.704 123.458 103.861C123.458 103.861 122.708 103.629 122.631 103.524C122.631 103.524 122.848 104.404 123.253 104.844C123.253 104.844 122.568 104.566 122.446 103.411L121.754 102.974C121.754 102.974 121.981 104.151 122.314 104.569C122.314 104.569 121.659 104.179 121.589 102.849L120.976 102.329C121.036 102.869 121.166 103.398 121.364 103.904C121.364 103.904 120.834 103.404 120.807 102.174L120.439 101.777C120.439 101.777 120.539 102.526 120.587 102.739C120.634 102.951 120.587 102.989 120.587 102.989C120.361 102.569 120.258 102.095 120.287 101.619C120.287 101.619 119.582 100.749 119.524 100.787Z" fill="#6C63FF"/>
<path d="M103.525 158.521C103.525 158.521 116.49 154.155 113.806 138.682L97.3365 134.406L93.5127 147.101L103.525 158.521Z" fill="#CED7E7"/>
<path opacity="0.1" d="M93.5127 147.101L103.522 158.522C103.522 158.522 116.488 154.155 113.804 138.683L93.5127 147.101Z" fill="black"/>
<path d="M39.03 32.7964C39.03 32.7964 40.7794 35.6434 43.1712 34.2211C45.5629 32.7989 43.2687 28.8696 43.2687 28.8696C43.2687 28.8696 38.6876 28.2422 39.03 32.7964Z" fill="#FED253"/>
<path opacity="0.1" d="M43.1713 34.2212C42.8891 34.4037 42.5727 34.5267 42.2414 34.5826C41.91 34.6385 41.5707 34.6261 41.2444 34.5461C40.3671 34.3236 39.6924 33.6488 39.33 33.2063C39.2219 33.0767 39.1217 32.9407 39.0301 32.7989C38.9076 31.1742 39.4125 30.2069 40.1122 29.637C41.0744 28.8546 42.4065 28.8221 42.9813 28.8471C43.1588 28.8471 43.2612 28.8721 43.2612 28.8721L43.3087 28.9521C43.3762 29.0796 43.5236 29.362 43.6811 29.7395C44.2159 30.9767 44.8532 33.2188 43.1713 34.2212Z" fill="black"/>
<path d="M104.799 137.955L113.796 138.682L130.541 138.82L117.348 155.067C117.348 155.067 113.161 155.294 112.299 155.884C111.437 156.474 99.3308 156.159 99.3308 156.159L97.3765 147.831L104.799 137.955Z" fill="#FFA2A2"/>
<path opacity="0.05" d="M104.799 137.955L113.796 138.682L130.541 138.82L117.348 155.067C117.348 155.067 113.161 155.294 112.299 155.884C111.437 156.474 99.3308 156.159 99.3308 156.159L97.3765 147.831L104.799 137.955Z" fill="black"/>
<path d="M95.6997 94.2728L97.7915 97.8222L98.2464 104.011C98.2464 104.011 99.7034 109.288 100.796 110.835C101.888 112.382 102.343 116.479 102.343 116.479C102.343 116.479 102.797 120.301 103.342 121.118C103.887 121.935 104.617 127.867 104.617 127.867C104.617 127.867 109.44 137.513 113.806 138.695C113.806 138.695 92.1508 145.794 103.525 158.534C103.525 158.534 95.4273 160.533 93.5154 158.261C91.6035 155.989 86.6001 122.315 86.6001 122.315L88.1471 93.9204L95.6997 94.2728Z" fill="#CED7E7"/>
<path opacity="0.05" d="M95.6997 94.2728L97.7915 97.8222L98.2464 104.011C98.2464 104.011 99.7034 109.288 100.796 110.835C101.888 112.382 102.343 116.479 102.343 116.479C102.343 116.479 102.797 120.301 103.342 121.118C103.887 121.935 104.617 127.867 104.617 127.867C104.617 127.867 109.44 137.513 113.806 138.695C113.806 138.695 92.1508 145.794 103.525 158.534C103.525 158.534 95.4273 160.533 93.5154 158.261C91.6035 155.989 86.6001 122.315 86.6001 122.315L88.1471 93.9204L95.6997 94.2728Z" fill="black"/>
<path d="M69.4257 59.6817C68.818 62.8345 68.9983 66.0886 69.9505 69.155L66.5816 78.8007C66.5816 78.8007 40.9222 64.5133 43.1066 61.0539C44.3437 59.0918 44.5011 53.9002 44.4011 49.7759C44.3287 46.6415 44.1062 44.127 44.1062 44.127C44.1062 44.127 75.5963 47.2239 71.4051 54.4126C70.4566 56.0465 69.7876 57.8274 69.4257 59.6817Z" fill="#FFA2A2"/>
<path opacity="0.1" d="M71.4048 54.4126C70.4563 56.0465 69.7873 57.8274 69.4254 59.6817C64.7522 61.1769 59.7055 61.0071 55.1433 59.2012C50.5811 57.3953 46.7851 54.0648 44.4009 49.7759C44.3284 46.6415 44.106 44.127 44.106 44.127C44.106 44.127 75.5885 47.2239 71.4048 54.4126Z" fill="black"/>
<path d="M84.1434 38.9407C84.1455 42.2773 83.3605 45.5673 81.852 48.5433C80.3435 51.5193 78.1541 54.0973 75.4619 56.0678C72.7697 58.0382 69.6506 59.3455 66.3581 59.8834C63.0656 60.4212 59.6927 60.1745 56.5135 59.1632C53.3343 58.1519 50.4385 56.4045 48.0617 54.0633C45.6848 51.722 43.8938 48.8528 42.8344 45.6889C41.7749 42.525 41.4769 39.1558 41.9645 35.855C42.4521 32.5543 43.7116 29.4152 45.6406 26.6929C45.9405 26.2713 46.2562 25.8597 46.5878 25.4581C48.477 23.1616 50.828 21.2881 53.4881 19.9591C54.9313 19.237 56.4535 18.6851 58.0242 18.3144C60.8601 17.6425 63.804 17.5613 66.6727 18.0761C69.5414 18.5909 72.2734 19.6905 74.699 21.3065C77.1245 22.9226 79.1916 25.0206 80.7716 27.4699C82.3517 29.9192 83.4109 32.6675 83.8835 35.5438C84.06 36.6674 84.1469 37.8033 84.1434 38.9407Z" fill="#FFA2A2"/>
<path d="M92.5129 126.128C92.1955 127.822 92.5929 130.919 93.1952 134.071C93.2202 134.209 93.2477 134.346 93.2752 134.484C93.3027 134.621 93.3427 134.834 93.3776 135.006C93.6551 136.361 93.9575 137.703 94.2524 138.923C94.5473 140.143 94.8122 141.187 95.0371 142.047C95.377 143.334 95.6094 144.144 95.6094 144.144C95.6094 144.144 95.6394 144.939 95.6794 146.204C95.7019 146.934 95.7269 147.824 95.7519 148.806C95.7519 149.091 95.7694 149.381 95.7769 149.681C95.7894 150.203 95.8019 150.746 95.8144 151.301C95.8144 151.481 95.8144 151.661 95.8269 151.843C95.8269 152.44 95.8494 153.05 95.8594 153.658C95.8719 154.492 95.8819 155.327 95.8869 156.137C95.8869 156.447 95.8869 156.752 95.8869 157.052C95.8869 157.827 95.8869 158.569 95.8869 159.252C95.8594 161.189 95.7819 162.651 95.6169 163.073C95.5595 163.218 95.507 163.376 95.457 163.541C95.2403 164.317 95.0832 165.108 94.9871 165.908L94.5623 165.561C93.75 164.891 92.9453 164.206 92.128 163.541C90.7697 162.403 89.3277 161.368 87.8144 160.446C87.7119 160.386 87.6095 160.326 87.5045 160.269C87.2246 160.106 86.9397 159.954 86.6498 159.809C86.0525 159.508 85.4403 159.238 84.8154 158.999C81.9288 157.899 78.8373 157.499 75.7033 157.567C74.4536 158.044 73.6414 158.387 73.6414 158.387L72.0519 158.867L71.787 158.947C70.065 159.472 67.6433 160.216 66.7711 160.526C65.3615 161.026 53.1229 163.573 53.1229 163.573C52.0048 163.879 50.8627 164.088 49.709 164.198C47.6083 164.789 45.4699 165.237 43.3085 165.538C38.397 166.166 33.4085 165.764 28.6607 164.358C28.519 164.367 28.3768 164.362 28.2358 164.346C28.3233 164.346 28.4083 164.326 28.4857 164.311L28.1808 164.221L27.7635 164.091C27.0637 163.871 26.3697 163.63 25.6816 163.368L25.2642 163.208C24.5978 162.952 23.9455 162.676 23.3074 162.381L22.89 162.191C22.2235 161.881 21.5713 161.554 20.9331 161.209C20.7032 161.089 20.4758 160.959 20.2508 160.836C19.5711 160.456 18.9046 160.058 18.2515 159.642C18.1415 158.699 18.084 158.069 18.084 158.069L17.1093 153.215L17.0594 152.965L16.3596 149.466L16.3096 149.216L14.7876 141.602L14.7376 141.352L14.0378 137.853L13.9878 137.603L12.4458 129.994L12.3958 129.744L11.6961 126.245L11.6461 125.995L10.1166 118.371L10.0666 118.122L9.36679 114.635L9.31681 114.385L9.0394 113.01L8.62203 110.928C8.62203 110.928 7.28995 109.023 5.79043 106.771L5.62298 106.521C5.19562 105.889 4.75575 105.231 4.32839 104.586C4.18594 104.374 4.04848 104.164 3.91102 103.957C3.70276 103.642 3.50115 103.334 3.30621 103.034L3.17126 102.827L3.14377 102.784C0.98945 99.4499 2.43149 98.0001 2.43149 98.0001C2.43149 98.0001 3.3362 96.7754 4.50333 95.1556C4.56082 95.0732 4.6208 94.9907 4.68328 94.9057C5.18312 94.2058 5.73294 93.441 6.27277 92.6761L6.69014 92.0812C6.84759 91.8587 7.00254 91.6363 7.15249 91.4163C7.21247 91.3338 7.26996 91.2489 7.32494 91.1664C8.47707 89.5017 9.42677 88.0494 9.62171 87.5345C9.92661 86.7222 11.871 84.3201 13.8079 82.213C15.3349 80.5483 16.8544 79.0685 17.5367 78.7136C19.0837 77.8962 19.721 75.2542 19.721 75.2542C19.721 75.2542 23.0874 74.0744 23.5423 73.1646C23.9972 72.2548 30.3676 68.1655 30.3676 68.1655C30.3676 68.1655 32.9443 66.5058 33.9865 65.506C34.134 65.3752 34.2627 65.2247 34.3689 65.0586C34.7312 64.4087 37.098 63.8738 38.0602 63.6813C38.3101 63.6313 38.4651 63.6038 38.4651 63.6038C38.8535 62.8979 39.3445 62.2535 39.9221 61.6917C40.3145 61.3442 40.8043 60.1469 41.2167 58.9871C41.664 57.7224 42.0114 56.5051 42.0114 56.5051C42.7412 54.048 44.1957 54.7754 44.1957 54.7754C44.1938 55.111 44.2256 55.446 44.2907 55.7752C44.898 58.7747 48.197 60.0245 49.9289 61.4267C51.8408 62.9714 54.8424 66.9782 57.2091 67.7956C59.1685 68.4729 61.4403 71.0275 62.16 71.8798L62.215 71.9448C62.335 72.0848 62.395 72.1648 62.395 72.1648C62.395 72.1648 63.7371 72.0948 64.5543 72.0798H64.8517C65.0179 72.0631 65.1758 71.9989 65.3066 71.8948C66.1188 71.3424 67.3284 69.7227 67.8557 69.3503C68.4905 68.8929 69.1303 61.5217 69.1303 61.5217L69.1628 61.5067C71.4296 60.4444 73.8613 71.0775 73.8613 71.0775C73.8613 71.0775 78.1375 72.3522 78.5024 73.2621C78.5723 73.442 78.8947 73.762 79.3796 74.1494C81.5872 75.8368 83.9369 77.3296 86.4024 78.6111C86.4573 78.6386 86.5098 78.6661 86.5648 78.6886C86.6144 78.7153 86.6653 78.7395 86.7173 78.7611C86.8097 78.8061 86.8997 78.8461 86.9847 78.8836C87.1196 78.9436 87.2446 78.9935 87.3596 79.0335L87.5095 79.086C87.8677 79.2052 88.205 79.3798 88.5092 79.6034C88.5992 79.6684 88.6891 79.7359 88.7766 79.8084C89.1169 80.0917 89.4299 80.4064 89.7113 80.7482C89.7538 80.7982 89.7938 80.8507 89.8338 80.9007C90.0237 81.1382 90.1937 81.3731 90.3336 81.5906C90.5633 81.9261 90.7728 82.275 90.9609 82.6354C90.9609 82.6354 94.6897 89.0068 95.8744 89.7316C97.059 90.4565 97.7863 97.8327 97.7863 97.8327L93.7875 112.658C93.7875 112.658 93.6001 116.407 93.2502 120.231C93.0553 122.376 92.8078 124.558 92.5129 126.128Z" fill="#CED7E7"/>
<path d="M62.3952 72.6145C62.3952 72.6145 59.7136 74.0693 57.6193 74.2067C57.3451 74.2195 57.0704 74.2036 56.7995 74.1592C54.6052 73.8268 51.3862 72.0221 51.3862 72.0221L55.1625 67.8804L59.7561 70.1575L61.4455 71.7297L62.3952 72.6145Z" fill="#63667E"/>
<path opacity="0.1" d="M83.8734 35.5437C83.7784 35.6781 83.6704 35.8028 83.551 35.9161C82.2364 37.1659 79.9022 36.6485 78.1102 36.3586C76.5531 36.104 75.032 35.6643 73.5792 35.0488C72.3146 34.5089 70.7976 33.849 69.6604 34.6239C69.2231 34.9188 68.9232 35.3912 68.4683 35.6512C68.0134 35.9111 67.4336 35.9286 66.8963 35.9361C65.1469 35.9361 63.3974 35.9561 61.6905 35.5612C59.1438 34.9663 56.5096 33.4691 54.0879 34.4564C52.1935 35.2263 51.1663 37.2884 50.654 39.2705C50.404 40.2429 50.2191 41.2702 49.6543 42.095C49.0894 42.9199 47.9973 43.5048 47.0676 43.1173C45.6955 42.5449 45.4931 40.2154 43.8386 40.0979C42.0217 39.9704 42.0442 41.8476 42.574 43.2048C43.3588 45.2045 44.3859 47.2041 44.4309 49.2887C42.4782 45.7908 41.5555 41.8114 41.7696 37.811C41.9836 33.8105 43.3257 29.9523 45.6405 26.6828C46.0434 26.4333 46.3587 26.0647 46.5428 25.628C46.5613 25.5689 46.5763 25.5088 46.5877 25.448C46.7252 24.7506 46.3378 24.0183 46.3153 23.2884C46.2278 21.5062 48.1572 20.264 49.9267 20.039C51.1038 19.889 52.3084 20.004 53.4881 19.9665C54.0822 19.9534 54.6731 19.8746 55.25 19.7315C56.2452 19.4333 57.177 18.9546 57.9991 18.3193C60.8351 17.6474 63.779 17.5662 66.6476 18.081C69.5163 18.5957 72.2484 19.6953 74.6739 21.3114C77.0995 22.9275 79.1665 25.0254 80.7466 27.4748C82.3267 29.9241 83.3859 32.6724 83.8584 35.5487L83.8734 35.5437Z" fill="black"/>
<path d="M84.3009 34.0713C84.1763 34.5657 83.9167 35.0157 83.5511 35.3711C82.2365 36.6209 79.9023 36.101 78.1103 35.811C76.5531 35.562 75.0317 35.1255 73.5793 34.5112C72.3147 33.9738 70.7976 33.314 69.6605 34.0888C69.2231 34.3838 68.9232 34.8562 68.4684 35.1161C68.0135 35.3761 67.4337 35.3936 66.8964 35.3986C65.1469 35.4111 63.3975 35.4211 61.6905 35.0261C59.1438 34.4288 56.5097 32.934 54.0879 33.9188C52.1935 34.6887 51.1664 36.7533 50.654 38.7355C50.4041 39.7078 50.2192 40.7351 49.6544 41.5575C49.0895 42.3798 47.9974 42.9697 47.0677 42.5823C45.6956 42.0099 45.4932 39.6803 43.8387 39.5628C42.0218 39.4354 42.0443 41.3125 42.5741 42.6698C43.5038 45.0368 44.7684 47.3914 44.3535 49.901C43.9412 49.901 43.2589 49.886 42.854 49.876C43.1689 49.3386 42.5691 48.6987 41.9718 48.5162C41.3745 48.3338 40.6772 48.3363 40.2223 47.9013C39.7675 47.4664 39.765 46.794 39.8125 46.1916C39.9161 44.9041 40.2311 43.6425 40.7447 42.4573C41.0721 41.7074 41.4944 40.8951 41.2445 40.1102C41.0945 39.7545 40.9139 39.4124 40.7047 39.0879C40.1849 38.0881 40.3073 36.8383 40.7522 35.806C40.9421 35.3661 41.0796 34.9512 41.237 34.5562C41.4359 33.9948 41.7236 33.4691 42.0892 32.999C42.6616 32.2866 43.2214 31.2143 42.5891 30.552C42.4291 30.3845 42.749 30.2695 42.6466 30.052C42.6285 30.0149 42.6158 29.9753 42.6091 29.9346C42.5797 29.6713 42.6434 29.406 42.789 29.1847C42.8185 29.1272 42.8511 29.0713 42.8865 29.0172C42.9152 28.9601 42.9478 28.905 42.984 28.8523C43.5374 27.9281 44.2729 27.1262 45.1458 26.4952C45.6881 26.1027 46.3229 25.7253 46.5378 25.0904C46.7878 24.3406 46.3479 23.5432 46.3104 22.7508C46.2229 20.9687 48.1523 19.7264 49.9218 19.5014C51.6912 19.2765 53.5256 19.6489 55.2501 19.1915C57.6968 18.5466 59.4163 16.387 61.638 15.1747C62.8535 14.5247 64.2014 14.1612 65.5788 14.1118C66.9562 14.0624 68.3267 14.3285 69.5855 14.8898C72.1797 16.0745 74.1366 18.4691 76.8457 19.369C77.8054 19.6889 78.8451 19.8164 79.7098 20.3463C80.7095 20.9612 81.3168 22.036 81.8366 23.0958C82.6289 24.703 82.7888 26.3177 83.3362 28.0199C83.771 29.3697 84.3733 31.1343 84.4233 32.6891C84.4514 33.1533 84.4101 33.6192 84.3009 34.0713Z" fill="#896363"/>
<g opacity="0.1">
<path d="M42.9137 30.9392C42.9537 30.7793 42.9577 30.6124 42.9252 30.4507C42.8928 30.289 42.8249 30.1366 42.7263 30.0044C42.7913 30.1994 42.5089 30.3118 42.6638 30.4743C42.7873 30.6041 42.8736 30.7647 42.9137 30.9392Z" fill="black"/>
<path d="M42.719 29.4321C42.6895 29.5194 42.6719 29.6102 42.6665 29.7021C42.714 29.6221 42.779 29.5396 42.719 29.4321Z" fill="black"/>
<path d="M83.6209 34.7612C82.3038 36.011 79.9721 35.4936 78.1751 35.2012C76.619 34.9506 75.0992 34.5116 73.6491 33.8939C72.382 33.354 70.8675 32.6941 69.7278 33.469C69.293 33.7639 68.9931 34.2363 68.5357 34.4963C68.0783 34.7562 67.501 34.7737 66.9637 34.7787C65.2143 34.7787 63.4648 34.8012 61.7554 34.4038C59.2112 33.8089 56.577 32.3167 54.1553 33.299C52.2609 34.0714 51.2337 36.1335 50.7214 38.1156C50.4714 39.088 50.289 40.1153 49.7217 40.9401C49.1543 41.765 48.0622 42.3499 47.135 41.965C45.7629 41.3901 45.5605 39.063 43.906 38.9455C42.6139 38.853 42.254 39.7778 42.3415 40.8052C42.4165 40.0203 42.8413 39.4154 43.906 39.4904C45.5605 39.6079 45.7629 41.9375 47.135 42.5099C48.0622 42.8973 49.1568 42.3149 49.7217 41.485C50.2865 40.6552 50.4714 39.6329 50.7214 38.663C51.2337 36.6809 52.2609 34.6163 54.1553 33.8464C56.577 32.8616 59.2112 34.3463 61.7554 34.9512C63.4548 35.3486 65.2193 35.3361 66.9637 35.3236C67.501 35.3236 68.0683 35.3086 68.5357 35.0437C69.0031 34.7787 69.2855 34.3113 69.7278 34.0139C70.8675 33.2415 72.382 33.9014 73.6491 34.4388C75.0995 35.0562 76.6192 35.496 78.1751 35.7486C79.9721 36.0385 82.3038 36.5609 83.6209 35.3061C84.3357 34.6238 84.5506 33.6364 84.5031 32.5566C84.4632 33.414 84.2132 34.1913 83.6209 34.7612Z" fill="black"/>
<path d="M46.3981 22.2983C46.3843 22.4228 46.3792 22.5481 46.3831 22.6733C46.4081 23.1932 46.6055 23.7131 46.668 24.2205C46.7605 23.5981 46.4731 22.9482 46.3981 22.2983Z" fill="black"/>
<path d="M41.3195 40.0329C41.3401 40.1076 41.356 40.1836 41.367 40.2603C41.4075 40.0025 41.3913 39.7389 41.3195 39.488C41.1705 39.1309 40.9898 38.788 40.7797 38.4632C40.5919 38.0934 40.4806 37.6896 40.4523 37.2759C40.4015 37.8731 40.5147 38.4729 40.7797 39.0106C40.9903 39.3342 41.171 39.6764 41.3195 40.0329Z" fill="black"/>
<path d="M44.4211 49.2762L42.9591 49.2537C42.9932 49.342 43.0068 49.4369 42.999 49.5313C42.9912 49.6257 42.9622 49.717 42.9141 49.7986C43.3264 49.7986 44.0112 49.8136 44.4136 49.8236C44.4835 49.3958 44.5078 48.9617 44.4861 48.5288C44.4804 48.7791 44.4587 49.0287 44.4211 49.2762Z" fill="black"/>
<path d="M42.0292 47.8938C41.4319 47.7138 40.7371 47.7113 40.2923 47.2739C40.0304 46.9874 39.8828 46.6147 39.8774 46.2266C39.8399 46.8015 39.8774 47.4213 40.2923 47.8213C40.7371 48.2587 41.4319 48.2612 42.0292 48.4412C42.2236 48.4977 42.4043 48.5934 42.5603 48.7223C42.7163 48.8513 42.8443 49.0108 42.9364 49.191C43.1889 48.6736 42.609 48.0662 42.0292 47.8938Z" fill="black"/>
</g>
<path opacity="0.1" d="M87.4972 160.269C87.2173 160.106 86.9324 159.954 86.6425 159.809C86.0452 159.507 85.433 159.237 84.808 158.999C81.9215 157.899 78.8299 157.499 75.6959 157.567C74.4463 158.044 73.6341 158.386 73.6341 158.386L72.0446 158.866L71.7797 158.946C71.7622 158.771 71.7422 158.596 71.7247 158.419C71.7072 158.241 71.6872 158.071 71.6672 157.896C71.1074 152.595 70.6675 147.148 70.6675 147.148V142.444V141.897L70.6375 128.037L70.3876 123.468L70.2702 121.445L70.2477 121.061L70.2027 120.271L70.1777 119.801C70.1225 119.652 70.0758 119.5 70.0377 119.346C70.0202 119.283 70.0027 119.213 69.9877 119.141C69.9253 118.891 69.8578 118.569 69.7878 118.219C69.3305 115.919 68.7581 112.042 68.7231 111.255C68.6782 110.205 67.7684 103.926 67.7684 103.926C67.676 100.469 64.7694 93.9604 64.0371 92.7332C63.3049 91.5059 62.4876 84.1322 62.7625 83.7348C62.905 83.5223 62.9975 82.265 63.0549 81.1052C63.0549 80.9728 63.0674 80.8428 63.0724 80.7153C63.1099 79.808 63.1274 79.0506 63.1274 79.0506L65.9865 78.4857L66.7538 78.3357L66.8138 78.3232L66.8387 78.3732C66.9212 78.5257 67.1786 79.0131 67.481 79.653C67.516 79.7205 67.5485 79.793 67.5835 79.8655C67.5985 79.9005 67.616 79.9355 67.6335 79.9704C68.1933 81.1952 68.8406 82.8074 68.8131 83.7348C68.7681 85.3745 70.635 89.3338 70.635 89.3338C70.815 90.2436 74.7737 99.297 74.7737 99.297C74.7737 99.297 78.0052 108.17 77.8228 109.628C77.6403 111.085 79.3698 120.731 79.3698 120.731L81.1442 130.651C82.0064 132.606 83.1436 137.11 83.1436 137.11L83.5759 139.665L83.6584 140.152L84.8105 146.968L85.3754 150.308C85.3754 150.308 85.6128 152.083 85.9727 154.057C86.0027 154.235 86.0377 154.415 86.0726 154.595C86.2944 155.894 86.6092 157.177 87.0148 158.431C87.216 159.032 87.3771 159.646 87.4972 160.269Z" fill="black"/>
<path d="M87.8073 160.446C87.7048 160.386 87.6024 160.326 87.4974 160.269C87.2175 160.106 86.9326 159.954 86.6427 159.809C86.0454 159.508 85.4332 159.237 84.8082 158.999C81.9217 157.899 78.8301 157.499 75.6961 157.567C74.4465 158.044 73.6343 158.386 73.6343 158.386L72.0448 158.866C72.0248 158.691 72.0073 158.516 71.9873 158.339C71.9673 158.162 71.9523 158.019 71.9373 157.859C71.3775 152.57 70.9376 147.149 70.9376 147.149V142.399V141.852L70.9077 128.027L70.6577 123.663L70.6078 122.758L70.5728 122.145L70.5278 121.336L70.4828 120.513L70.4503 119.921V119.791C70.4503 119.778 70.4503 119.763 70.4328 119.748C70.3853 119.613 70.3278 119.408 70.2654 119.149L70.2354 119.024C70.2229 118.966 70.2079 118.904 70.1954 118.841C69.7255 116.709 69.0358 112.112 68.9983 111.25C68.9533 110.2 68.0436 103.921 68.0436 103.921C67.9511 100.464 65.0445 93.9556 64.3122 92.7283C63.58 91.501 62.7652 84.1273 63.0377 83.7299C63.1951 83.4799 63.2876 81.9627 63.3476 80.7104C63.3476 80.6104 63.3476 80.513 63.3476 80.4205C63.38 79.6481 63.3925 79.0457 63.3925 79.0457L66.0517 78.5208L66.7265 78.3883L66.8314 78.3683L67.0814 78.3184C67.0814 78.3184 67.4088 78.9233 67.8011 79.7556L67.8511 79.8606C68.4234 81.0954 69.1007 82.7751 69.0807 83.7299C69.0357 85.3696 70.9027 89.3289 70.9027 89.3289C71.0826 90.2387 75.0413 99.2921 75.0413 99.2921C75.0413 99.2921 78.2728 108.165 78.0904 109.623C77.9079 111.08 79.6374 120.726 79.6374 120.726L81.4118 130.646C82.274 132.601 83.4112 137.105 83.4112 137.105L83.8136 139.485L83.896 139.967L84.8032 145.346L85.6405 150.303C85.6405 150.303 85.8904 152.07 86.2353 154.052C86.2678 154.232 86.3003 154.412 86.3353 154.595C86.5566 155.9 86.8715 157.188 87.2775 158.449C87.499 159.102 87.676 159.769 87.8073 160.446Z" fill="#63667E"/>
<path d="M85.5528 32.0719C85.5528 32.0719 84.5981 33.3017 83.7359 33.3017C82.8736 33.3017 79.5172 33.1642 77.7678 32.6193C76.0183 32.0744 67.441 31.662 67.441 31.662C67.441 31.662 55.2949 31.707 54.885 31.297C54.4751 30.8871 47.3324 28.7025 46.6051 28.84C46.4527 28.87 46.0803 28.935 45.583 29.0174L45.0131 29.1099C44.1509 29.2474 43.0738 29.4074 42.0891 29.5248C40.872 29.6673 39.8023 29.7398 39.4624 29.6148V28.5675C39.4624 28.5675 40.872 26.5179 40.9619 25.9305C41.0519 25.3431 42.2365 16.8271 45.3305 13.7802C46.6088 11.3364 48.6773 9.39796 51.1987 8.28116C55.3849 6.45899 59.571 4.91426 59.571 4.91426L60.3033 4.80928L62.665 4.45934C62.7368 4.38787 62.8146 4.32264 62.8975 4.26438C63.5523 3.76447 65.5366 2.67716 68.1233 5.01425L68.5807 5.74412C68.5807 5.74412 76.5406 7.60878 80.2245 14.1151C83.9083 20.6214 84.0932 26.9928 84.3657 29.9048C84.3657 29.9048 84.1832 30.7246 84.5481 31.0421C84.6802 31.1588 84.8062 31.2823 84.9255 31.412C84.958 31.4445 84.9905 31.477 85.0205 31.512C85.1254 31.617 85.2229 31.727 85.3029 31.8169C85.3124 31.824 85.3208 31.8324 85.3279 31.8419C85.3474 31.8656 85.3682 31.8881 85.3903 31.9094L85.5528 32.0719Z" fill="#FAA346"/>
<path opacity="0.05" d="M85.5527 32.0719C85.5527 32.0719 84.598 33.3016 83.7358 33.3016C82.8735 33.3016 79.5171 33.1642 77.7676 32.6193C76.0182 32.0744 67.4409 31.6619 67.4409 31.6619C67.4409 31.6619 55.2948 31.7069 54.8849 31.297C54.475 30.8871 47.3323 28.7025 46.605 28.8399C46.4526 28.8699 46.0802 28.9349 45.5829 29.0174L45.4529 28.2175L45.4204 28.0201C45.4204 28.0201 59.206 25.0631 68.3956 26.6128C77.5852 28.1626 84.3656 29.8872 84.3656 29.8872C84.3656 29.8872 84.1831 30.7071 84.548 31.0245C84.6801 31.1413 84.8061 31.2647 84.9254 31.3945C84.9579 31.427 84.9904 31.4595 85.0203 31.4945C85.1253 31.5994 85.2228 31.7094 85.3028 31.7994C85.3123 31.8064 85.3207 31.8149 85.3277 31.8244C85.3473 31.848 85.3682 31.8706 85.3902 31.8919L85.5527 32.0719Z" fill="black"/>
<path opacity="0.1" d="M84.301 34.0712C82.599 34.2037 79.4625 33.7888 78.0904 33.5863C77.7006 33.5288 77.3182 33.4588 76.9333 33.3739C75.4613 33.0539 70.9352 32.1566 68.1861 32.5715C64.8646 33.0714 55.4926 32.1616 55.4926 32.1616C55.4926 32.1616 49.7144 30.9793 47.3927 30.0245C46.5405 29.672 45.1159 29.562 43.6988 29.737C43.3375 29.7821 42.9788 29.8463 42.6242 29.9295C40.6898 30.3869 39.0578 31.4292 39.3402 33.2064C39.2321 33.0768 39.132 32.9407 39.0403 32.799C38.9179 31.1743 39.4227 30.2069 40.1225 29.637L40.2874 29.5695C41.1423 29.3266 42.0122 29.1404 42.8916 29.0121C43.0291 28.9897 43.1715 28.9697 43.3165 28.9522C45.8032 28.6172 49.3995 28.5422 52.4336 30.0695C52.4336 30.0695 55.2527 31.3917 57.1646 31.3917C59.0765 31.3917 74.634 31.5292 78.2754 32.574C79.0003 32.7835 79.7395 32.9397 80.4872 33.0414C81.8147 33.2126 83.1638 33.0854 84.4359 32.669C84.462 33.1405 84.4165 33.6133 84.301 34.0712Z" fill="black"/>
<path opacity="0.1" d="M85.5528 32.0717C85.5528 32.0717 84.5981 33.3015 83.7359 33.3015C82.8736 33.3015 79.5172 33.164 77.7678 32.6191C76.0183 32.0742 67.441 31.6617 67.441 31.6617C67.441 31.6617 55.2949 31.7067 54.885 31.2968C54.4751 30.8869 47.3324 28.7023 46.6051 28.8398C46.4527 28.8697 46.0803 28.9347 45.583 29.0172L45.0131 29.1097C44.0234 29.1046 43.0383 29.2444 42.0891 29.5246C40.872 29.6671 39.8023 29.7396 39.4624 29.6146V29.4072C39.7245 29.2551 39.9976 29.123 40.2796 29.0122C41.9661 28.5399 43.7028 28.2697 45.453 28.2074C47.6348 28.1274 50.1865 28.3823 52.4283 29.5121C52.4283 29.5121 55.2474 30.8344 57.1593 30.8344C59.0712 30.8344 74.6288 30.9694 78.2701 32.0167C78.9953 32.2242 79.7345 32.3795 80.4819 32.4816C82.1219 32.6883 83.7873 32.4491 85.3029 31.7892C85.3124 31.7962 85.3208 31.8047 85.3279 31.8142C85.3474 31.8379 85.3683 31.8604 85.3903 31.8817L85.5528 32.0717Z" fill="black"/>
<path d="M39.375 33.1642C39.375 33.1642 36.3259 30.8422 40.2847 29.2949C40.2847 29.2949 47.2 27.1578 52.4333 29.7948C52.4333 29.7948 55.2524 31.1121 57.1643 31.1121C59.0762 31.1121 74.6338 31.2496 78.2751 32.2969C79.0003 32.5047 79.7395 32.66 80.4869 32.7618C82.4242 32.9967 84.3866 32.6238 86.1026 31.6945C86.3526 31.557 86.5775 31.487 86.645 31.567C86.8724 31.842 86.6925 33.4342 84.6906 33.7516C83.1286 34.0016 79.5797 33.5292 78.0877 33.3117C77.7003 33.2542 77.3154 33.1817 76.933 33.0992C75.461 32.7793 70.9349 31.882 68.1733 32.2969C64.8544 32.7968 55.4799 31.887 55.4799 31.887C55.4799 31.887 49.7042 30.7047 47.3824 29.7473C45.0607 28.79 38.5102 29.6149 39.375 33.1642Z" fill="#FAA346"/>
<path opacity="0.1" d="M65.0796 8.76571C64.8297 8.40578 61.6182 5.83374 60.3086 4.79393L62.6703 4.44399C62.7421 4.37251 62.8199 4.30729 62.9028 4.24902C64.6197 6.0512 65.0796 8.76571 65.0796 8.76571Z" fill="black"/>
<path opacity="0.1" d="M54.6629 22.5611L53.6157 24.1083L57.6195 23.9733L57.7094 22.2437L54.6629 22.5611Z" fill="black"/>
<path opacity="0.1" d="M79.0923 24.4282L79.5471 25.838L82.0963 26.2479L81.0042 24.5632L79.0923 24.4282Z" fill="black"/>
<path opacity="0.1" d="M35.3262 71.7544C35.5986 72.2093 44.5607 84.0022 46.9275 83.6748C49.2942 83.3473 35.3262 71.7544 35.3262 71.7544Z" fill="black"/>
<path opacity="0.1" d="M65.3545 82.5327C65.3545 82.5327 67.5388 84.6273 67.2189 85.4447C66.899 86.262 65.3545 82.5327 65.3545 82.5327Z" fill="black"/>
<path opacity="0.1" d="M41.5142 96.9126C41.5142 96.9126 39.6023 105.876 40.6045 106.161C41.6067 106.446 41.5142 96.9126 41.5142 96.9126Z" fill="black"/>
<path opacity="0.1" d="M66.0815 131.721C66.3989 132.631 69.0381 138.547 69.6304 138.865C70.2227 139.182 66.0815 131.721 66.0815 131.721Z" fill="black"/>
<path opacity="0.1" d="M96.7467 107.423C96.6542 107.741 94.38 109.608 94.8798 110.29C95.3796 110.973 96.7467 107.423 96.7467 107.423Z" fill="black"/>
<path opacity="0.1" d="M79.0926 124.03C79.0476 124.26 78.5928 129.029 79.4575 129.947C80.3222 130.864 79.0926 124.03 79.0926 124.03Z" fill="black"/>
<path opacity="0.1" d="M102.405 148.806C101.745 149.173 101.063 149.528 100.368 149.868C99.6183 150.233 98.8686 150.58 98.1038 150.908C97.7989 151.04 97.494 151.17 97.1916 151.295C96.7318 151.485 96.2769 151.668 95.8271 151.843C94.46 152.378 93.1429 152.843 91.9708 153.235C91.5159 153.387 91.0811 153.527 90.6762 153.657C88.6368 154.305 87.2823 154.657 87.2823 154.657C86.9728 154.591 86.6561 154.565 86.3401 154.58C86.2526 154.58 86.1626 154.58 86.0701 154.58C85.6469 154.61 85.2256 154.664 84.808 154.74C82.0164 155.24 78.0727 156.642 75.6959 157.559C74.4463 158.037 73.6341 158.379 73.6341 158.379L72.0446 158.859L71.7797 158.939C70.0577 159.464 67.636 160.209 66.7638 160.519C65.3542 161.019 53.1156 163.566 53.1156 163.566C51.9975 163.871 50.8554 164.08 49.7017 164.19C46.8588 164.451 44.0013 164.517 41.1494 164.385C38.2853 164.57 33.6518 163.941 30.9551 163.516L30.5253 163.448C29.4831 163.278 28.8208 163.156 28.8208 163.156L29.1707 162.673L36.3459 152.773L36.3884 152.713L43.0738 143.492L43.3237 143.157L43.931 142.319C43.931 142.319 44.2959 141.82 45.7004 141.787C45.8654 141.787 46.0453 141.787 46.2428 141.787C47.4226 141.882 48.5865 142.119 49.7092 142.494L50.0341 142.592C54.875 143.979 62.3577 143.632 62.3577 143.632C62.3577 143.632 67.0137 142.882 70.6725 142.432L70.9449 142.397C72.1406 142.228 73.3444 142.124 74.5513 142.084C76.7806 142.129 81.6041 140.947 81.6041 140.947C82.6412 140.725 83.0786 140.537 83.6634 140.12C83.7409 140.065 83.8234 140.005 83.9133 139.94C84.1632 139.752 84.4507 139.522 84.8205 139.237C85.4953 138.72 86.4425 138.018 87.9321 137.033C88.062 136.948 88.1995 136.863 88.3469 136.783C88.4944 136.703 88.6818 136.595 88.8618 136.505C90.3043 135.822 91.8252 135.319 93.3903 135.006C94.6887 134.727 96.0061 134.545 97.3316 134.463H97.529C101.278 134.263 105.107 134.906 107.346 137.013C107.737 137.383 108.079 137.803 108.361 138.263C108.497 138.481 108.619 138.708 108.725 138.943C108.93 139.39 109.082 139.86 109.178 140.342C109.196 140.432 109.211 140.522 109.223 140.612C109.223 140.64 109.223 140.665 109.223 140.692C109.223 140.765 109.238 140.837 109.243 140.91C109.443 143.902 106.339 146.606 102.405 148.806Z" fill="black"/>
<path d="M28.8208 162.618C28.8208 162.618 36.9182 164.118 41.1494 163.845C41.1494 163.845 48.9294 164.255 53.1156 163.028C53.1156 163.028 65.3617 160.479 66.7638 159.979C68.1658 159.479 73.6341 157.839 73.6341 157.839C73.6341 157.839 84.2807 153.38 87.2823 154.107C87.2823 154.107 110.85 148.011 109.165 139.775C107.481 131.539 92.6056 133.406 87.9221 136.498C83.2385 139.59 83.9233 139.912 81.5991 140.412C81.5991 140.412 76.7756 141.594 74.5463 141.549C72.317 141.504 62.3527 143.097 62.3527 143.097C62.3527 143.097 54.5277 143.462 49.7067 141.959C44.8857 140.457 43.9285 141.777 43.9285 141.777L28.8208 162.618Z" fill="#FFA2A2"/>
<path opacity="0.1" d="M46.3803 141.242C46.3815 141.252 46.3815 141.262 46.3803 141.272C46.3629 141.458 46.3147 141.64 46.2378 141.81C45.2781 144.164 39.8299 150.516 39.8299 150.516C39.5815 151.27 39.2817 152.007 38.9327 152.72C38.1819 154.245 37.3173 155.712 36.346 157.107C34.9063 159.194 33.3344 161.187 31.64 163.073H31.6275C31.4119 163.233 31.1874 163.381 30.9552 163.516C30.3679 163.866 29.4857 164.298 28.6534 164.351C28.5117 164.359 28.3695 164.355 28.2286 164.338C28.316 164.338 28.401 164.318 28.4785 164.303L28.1736 164.213L27.7562 164.083C27.0564 163.863 26.3625 163.622 25.6744 163.361L25.257 163.201C24.5905 162.944 23.9382 162.668 23.3001 162.373L22.8828 162.184C22.2163 161.874 21.564 161.546 20.9259 161.201C20.6959 161.081 20.4685 160.951 20.2436 160.829C19.5638 160.449 18.8973 160.051 18.2442 159.634C17.5511 159.192 16.873 158.732 16.2099 158.252C15.71 157.324 15.2977 156.502 15.0727 156.06C14.6629 155.237 14.6279 154.06 14.6779 153.208C14.6779 153.12 14.6779 153.038 14.6928 152.958C14.7353 152.423 14.8003 152.055 14.8003 152.055C14.43 151.56 14.0959 151.039 13.8006 150.496C13.631 150.226 13.5345 149.917 13.5207 149.598C13.532 149.471 13.5202 149.342 13.4857 149.218C13.2933 148.428 12.4661 147.071 11.7013 146.219C11.1315 145.591 11.0965 143.247 11.1515 141.585C11.184 140.585 11.2464 139.85 11.2464 139.85C11.1345 139.778 11.0506 139.669 11.009 139.543C10.8081 138.996 10.6722 138.427 10.6041 137.848C10.6041 137.765 10.5817 137.683 10.5692 137.598C10.4092 136.451 10.3367 135.298 10.3367 135.298C8.48732 133.951 7.60759 131.849 7.19772 129.974L7.14524 129.724C6.92014 128.572 6.82458 127.398 6.86033 126.225C6.86033 126.112 6.86033 126.027 6.86033 125.975C6.86033 125.923 6.86033 125.913 6.86033 125.913C6.86033 125.913 7.10525 120.496 7.79004 118.381C7.81753 118.291 7.84752 118.209 7.87751 118.131C7.92796 117.999 7.99336 117.872 8.07245 117.754C8.32237 117.422 8.49981 116.794 8.64727 116.052C8.74973 115.537 8.83471 114.964 8.89719 114.395C8.95467 113.92 8.99965 113.447 9.03464 113.01C9.13211 111.84 9.1621 110.928 9.1621 110.928L8.69975 108.648C8.57229 108.026 8.47482 107.398 8.40734 106.771C8.40734 106.688 8.38735 106.606 8.37735 106.521C8.26046 105.362 8.23957 104.196 8.31487 103.034C8.31487 102.949 8.31487 102.867 8.32987 102.784C8.52501 100.137 9.21685 97.5511 10.3692 95.1605L10.4942 94.9106C10.6608 94.5773 10.8357 94.2499 11.019 93.9282C11.1515 93.6908 11.2914 93.4558 11.4364 93.2234C11.8206 92.6009 12.2378 91.9993 12.686 91.4212C12.751 91.3362 12.8184 91.2537 12.8859 91.1712C13.6658 90.2043 14.5324 89.3107 15.4751 88.5017C17.9993 86.3321 20.3161 85.3898 22.4204 85.3173C31.6225 84.9924 36.7833 101.269 37.6181 104.121C37.6981 104.396 37.738 104.546 37.738 104.546C37.738 104.546 41.4669 108.278 40.3747 109.915C40.1629 110.276 40.034 110.679 39.9973 111.095C39.6974 113.297 40.5571 116.924 40.5571 116.924C40.5571 116.924 40.862 117.924 41.7518 120.319L42.0142 121.018C42.5715 122.518 42.7015 125.035 42.3816 127.29C42.0742 129.449 41.3519 131.359 40.1948 131.849C37.828 132.849 38.4653 133.849 39.0101 134.671C39.3339 135.26 39.6041 135.878 39.8174 136.516C40.1598 137.438 40.4772 138.408 40.5971 138.785C40.6321 138.89 40.6496 138.948 40.6496 138.948C40.9811 138.819 41.3255 138.727 41.6768 138.673C42.1241 138.61 42.5665 138.655 42.6515 139.038C42.6965 139.243 42.9539 139.485 43.3163 139.728C44.3909 140.467 46.3803 141.242 46.3803 141.242Z" fill="black"/>
<path d="M45.8357 141.242C45.8204 141.432 45.7722 141.618 45.6932 141.792C44.7385 144.149 39.2852 150.515 39.2852 150.515C39.0358 151.27 38.736 152.006 38.388 152.72C37.7849 153.952 37.1029 155.143 36.3462 156.287C34.7795 158.651 33.0438 160.898 31.1528 163.011L31.0953 163.073C31.0953 163.073 30.8754 163.241 30.5255 163.456C29.9003 163.855 29.2114 164.144 28.4887 164.31L28.1838 164.22L27.7664 164.09C27.0666 163.871 26.3727 163.63 25.6846 163.368L25.2672 163.208C24.6007 162.952 23.9484 162.676 23.3103 162.381L22.8929 162.191C22.2265 161.881 21.5742 161.553 20.9361 161.208C20.7061 161.089 20.4787 160.959 20.2538 160.836C19.574 160.456 18.9075 160.058 18.2544 159.641C17.5613 159.2 16.8832 158.739 16.2201 158.259C15.9135 158.039 15.6102 157.813 15.3103 157.582C14.9729 156.942 14.703 156.402 14.5356 156.067C14.1257 155.245 14.0907 154.067 14.1407 153.215C14.1407 153.127 14.1407 153.045 14.1557 152.965C14.1982 152.43 14.2632 152.063 14.2632 152.063C14.2632 152.063 14.0607 151.79 13.8158 151.42C13.6784 151.215 13.5309 150.978 13.3984 150.743C13.1485 150.303 12.9536 149.858 12.9911 149.606C12.9961 149.562 12.9961 149.519 12.9911 149.476C12.9873 149.391 12.9748 149.307 12.9536 149.226C12.7612 148.436 11.9314 147.079 11.1667 146.226C10.5968 145.599 10.5618 143.254 10.6143 141.592C10.6143 141.507 10.6143 141.425 10.6143 141.342C10.6493 140.48 10.7018 139.857 10.7018 139.857C10.4194 139.735 10.202 138.828 10.062 137.858L10.0245 137.608C9.86457 136.46 9.79209 135.308 9.79209 135.308C7.94268 133.961 7.06296 131.859 6.65559 129.984C6.37178 128.671 6.26254 127.326 6.33069 125.985C6.33069 125.945 6.33069 125.922 6.33069 125.922C6.33069 125.922 6.54562 120.478 7.2304 118.361C7.2579 118.271 7.28789 118.189 7.31788 118.111C7.37785 117.981 7.45248 117.859 7.54031 117.746C7.92019 117.216 8.17261 115.942 8.33755 114.637L8.36754 114.387C8.57498 112.637 8.63246 110.92 8.63246 110.92L8.16761 108.64C8.04098 108.016 7.94351 107.39 7.8752 106.763C7.8627 106.681 7.85521 106.596 7.84521 106.513C7.72835 105.355 7.70745 104.188 7.78273 103.026C7.78273 102.941 7.78273 102.859 7.80022 102.776C7.99418 100.13 8.68608 97.543 9.83958 95.1528C9.87956 95.0679 9.91955 94.9854 9.96454 94.9029C10.2859 94.2537 10.643 93.6229 11.0342 93.0132C11.1692 92.8008 11.3066 92.5908 11.4516 92.3834C11.679 92.0534 11.9164 91.7285 12.1638 91.4135L12.3638 91.1636C13.137 90.2003 13.996 89.3093 14.9305 88.5015C17.6796 86.1445 20.1788 85.2346 22.4281 85.3171C31.2878 85.6346 36.2612 101.327 37.0784 104.121C37.1584 104.396 37.1984 104.546 37.1984 104.546C37.1984 104.546 40.9297 108.278 39.8376 109.915C39.6258 110.276 39.4969 110.679 39.4602 111.095C39.1578 113.297 40.02 116.924 40.02 116.924C40.02 116.924 40.3249 117.924 41.2146 120.318C41.2946 120.541 41.3821 120.773 41.4645 121.018C42.0219 122.518 42.1518 125.035 41.8319 127.29C41.5245 129.452 40.8048 131.359 39.6451 131.849C37.2809 132.849 37.9157 133.848 38.463 134.671C38.7868 135.26 39.0569 135.878 39.2702 136.515C39.7026 137.693 40.1 138.947 40.1 138.947C40.2635 138.884 40.4304 138.83 40.5998 138.785C40.9475 138.671 41.3157 138.632 41.6795 138.673C41.7802 138.68 41.8758 138.72 41.9525 138.785C42.0293 138.851 42.0834 138.939 42.1068 139.037C42.1743 139.337 42.6917 139.71 43.319 140.062C44.1335 140.506 44.9739 140.9 45.8357 141.242Z" fill="#CED7E7"/>
<path opacity="0.1" d="M12.9409 117.206C13.8056 117.161 23.0877 113.567 24.9996 114.794C26.9115 116.022 38.7452 123.985 38.7452 123.985C38.7452 123.985 31.3301 114.294 24.8696 112.02C18.4092 109.745 12.9409 117.206 12.9409 117.206Z" fill="black"/>
<path opacity="0.1" d="M26.2842 131.859C26.2842 131.859 35.5662 133.724 36.9758 134.998L26.2842 131.859Z" fill="black"/>
<path opacity="0.1" d="M24.4973 145.741C24.3624 145.879 20.9984 153.43 21.2683 153.43C21.5383 153.43 24.4073 148.931 24.4073 148.931L24.4973 145.741Z" fill="black"/>
<path opacity="0.1" d="M30.8227 136.681C30.8227 136.681 28.0935 137.638 28.4109 137.728C28.7283 137.818 30.7302 137.091 30.8227 136.681Z" fill="black"/>
<path opacity="0.1" d="M28.0938 148.104C28.5486 149.058 30.0031 151.925 30.323 151.47C30.6429 151.015 28.0938 148.104 28.0938 148.104Z" fill="black"/>
<path opacity="0.1" d="M62.1626 72.4221L61.7727 72.977C61.7727 72.977 58.6762 70.7949 57.4041 69.7026C56.132 68.6103 53.128 73.6144 50.7612 74.9791C48.3945 76.3439 44.3932 76.7088 44.3932 76.7088C44.3932 76.7088 41.2992 73.6144 41.3942 72.7095C41.4892 71.8047 39.9397 71.5272 39.8472 70.8899C39.7547 70.2525 39.2099 68.4328 38.4826 67.523C38.0977 67.043 38.0428 65.5408 38.0777 64.2335C38.3277 64.1836 38.4826 64.1561 38.4826 64.1561C38.8711 63.4501 39.3621 62.8057 39.9397 62.2439C40.7594 61.5165 42.0315 57.0573 42.0315 57.0573C42.7588 54.6003 44.2133 55.3276 44.2133 55.3276C44.2133 59.0595 48.0371 60.4242 49.9465 61.9714C51.8559 63.5187 54.8599 67.523 57.2267 68.3428C59.1686 69.0052 61.4403 71.5672 62.1626 72.4221Z" fill="black"/>
<path d="M62.1629 71.8744L61.773 72.4318C61.773 72.4318 58.664 70.2547 57.3919 69.1549C56.1198 68.0551 53.1158 73.0667 50.749 74.4315C48.3823 75.7962 44.381 76.1637 44.381 76.1637C44.381 76.1637 41.287 73.0667 41.382 72.1644C41.477 71.262 39.9275 70.9821 39.835 70.3422C39.7425 69.7023 39.1977 67.8851 38.4704 66.9753C38.0855 66.4954 38.0306 64.9932 38.0655 63.6859L38.4704 63.6109C38.8589 62.905 39.3499 62.2606 39.9275 61.6987C40.7472 60.9689 42.0193 56.5122 42.0193 56.5122C42.7466 54.0551 44.2011 54.78 44.2011 54.78C44.2011 58.5118 48.0249 59.8791 49.9343 61.4263C51.8437 62.9735 54.8477 66.9753 57.2145 67.7952C59.1689 68.4675 61.4406 71.0196 62.1629 71.8744Z" fill="#CED7E7"/>
<path opacity="0.1" d="M62.395 72.6145C62.395 72.6145 59.7134 74.0692 57.6191 74.2067C57.3449 74.2195 57.0702 74.2036 56.7993 74.1592C56.7993 74.1592 59.1111 72.432 61.2579 72.0796L62.395 72.6145Z" fill="black"/>
<path opacity="0.1" d="M67.856 80.0305C67.856 80.0305 64.4746 78.7132 63.3574 80.6953C63.3949 79.7855 63.4099 79.0306 63.4099 79.0306L67.0962 78.3008C67.0962 78.3008 67.4511 78.9582 67.866 79.843C67.856 79.9605 67.856 80.0305 67.856 80.0305Z" fill="black"/>
<path d="M56.7993 74.1593C56.7993 74.1593 60.8505 71.7272 62.7974 71.9322C64.8393 72.1446 68.7955 72.2946 68.7955 72.2946C68.7955 72.2946 67.4309 75.3891 67.6134 76.0265C67.7958 76.6638 67.8408 79.7583 67.8408 79.7583C67.8408 79.7583 63.7471 78.1661 63.0648 81.123C63.0648 81.123 60.8355 77.8011 59.3335 76.7988C58.3369 76.0787 57.4784 75.1845 56.7993 74.1593Z" fill="#63667E"/>
<path opacity="0.1" d="M79.6846 76.9836C78.5024 76.9836 74.3162 74.3416 73.4065 72.6144C72.4968 70.8872 71.2222 72.7943 70.0401 73.4342C69.2903 73.8441 66.3188 72.9868 64.7168 72.3644C65.529 71.812 67.3285 70.2573 67.8558 69.8848C68.4906 69.4274 69.1304 62.0563 69.1304 62.0563C71.4047 60.874 73.8614 71.612 73.8614 71.612C73.8614 71.612 78.14 72.8868 78.5024 73.7967C78.5724 73.9766 78.8948 74.2966 79.3797 74.684C79.8795 75.9438 80.1544 76.9836 79.6846 76.9836Z" fill="black"/>
<path d="M79.6846 76.436C78.5025 76.436 74.3163 73.7965 73.4066 72.0693C72.4969 70.3421 71.2223 72.2493 70.0401 72.8867C69.2904 73.2966 66.9086 72.5042 65.3066 71.8869C66.1189 71.337 67.3285 69.7172 67.8558 69.3423C68.4906 68.8874 69.1304 61.5162 69.1304 61.5162C71.4047 60.3339 73.8614 71.072 73.8614 71.072C73.8614 71.072 78.1401 72.3468 78.5025 73.2566C78.5724 73.4366 78.8948 73.7565 79.3797 74.1439C79.8795 75.3962 80.1544 76.436 79.6846 76.436Z" fill="#CED7E7"/>
<path d="M95.8523 156.164L135.417 123.17C135.812 122.837 136.315 122.659 136.832 122.67L151.592 123.058C151.592 123.058 152.614 123.808 151.115 125.447L113.792 156.079C113.388 156.409 112.888 156.597 112.367 156.614L96.2271 157.149C96.1112 157.153 95.9971 157.12 95.9006 157.056C95.8041 156.992 95.7301 156.899 95.6888 156.79C95.6476 156.682 95.6411 156.564 95.6704 156.451C95.6997 156.339 95.7633 156.239 95.8523 156.164Z" fill="#F04C1A"/>
<path d="M114.991 152.105C114.991 152.105 123.633 164.483 133.235 152.97C142.837 141.457 140.061 135.408 137.149 135.088C134.238 134.768 117.855 147.373 114.991 152.105Z" fill="#FFA2A2"/>
<path opacity="0.1" d="M173.28 13.6651C173.28 13.6651 184.419 -7.95602 197.585 3.19447C197.585 3.19447 200.459 4.24179 200.242 7.28124C200.242 7.28124 199.135 6.67385 198.255 8.99593C197.932 9.81987 197.512 10.6027 197.005 11.328C196.331 12.3079 195.358 13.0428 194.231 13.4226C194.231 13.4226 188.323 17.8493 177.379 14.435C177.379 14.435 174.285 14.8799 173.785 14.4949L177.381 11.8654C177.381 11.8654 179.208 14.5774 181.88 14.8874C181.88 14.8874 177.381 12.0629 177.896 11.4505C178.001 11.3255 179.866 10.1432 179.866 10.1432C179.866 10.1432 183.062 14.8449 187.206 15.1923C187.206 15.1923 181.4 12.5453 180.568 9.69331L183.485 8.0661C183.485 8.0661 186.619 13.2027 191.325 13.7776C191.325 13.7776 185.351 10.8006 184.147 7.75366L187.233 6.54887C187.233 6.54887 190.39 11.498 194.306 11.9504C194.306 11.9504 187.753 7.81365 187.958 6.31891C187.958 6.31891 190.86 5.38408 191.749 5.50656C191.749 5.50656 194.096 9.00593 196.395 9.06842C196.395 9.06842 192.309 5.839 192.579 5.34159C192.579 5.34159 196.683 5.12913 198.827 6.12145C198.827 6.12145 195.778 4.42426 192.579 4.69921C192.579 4.69921 194.026 2.99701 195.913 2.62208C195.913 2.62208 193.651 1.69225 191.584 4.76169C191.584 4.76169 188.393 5.05414 187.998 5.40908C187.998 5.40908 189.613 2.08967 191.599 0.677427C191.599 0.677427 188.638 1.19983 187.171 5.69903L184.042 6.84132C184.042 6.84132 185.944 2.34213 187.621 0.952378C187.621 0.952378 184.682 1.9522 183.277 7.20126L180.398 8.76597C180.398 8.76597 181.74 4.76669 183.272 2.81454C183.272 2.81454 180.745 4.32927 179.588 9.24339L177.789 10.5107C177.789 10.5107 178.821 7.60618 179.193 6.79883C179.566 5.99147 179.378 5.824 179.378 5.824C178.127 7.30303 177.312 9.10025 177.022 11.0156C177.022 11.0156 173.488 13.8651 173.28 13.6651Z" fill="#6C63FF"/>
<path opacity="0.1" d="M219.348 25.228C219.348 25.228 224.382 15.4573 230.33 20.4964C230.33 20.4964 231.629 20.9688 231.529 22.3411C231.529 22.3411 231.029 22.0686 230.632 23.1184C230.488 23.4903 230.3 23.8436 230.072 24.1707C229.768 24.6124 229.33 24.9445 228.823 25.1181C228.823 25.1181 226.151 27.1177 221.205 25.5755C221.205 25.5755 219.808 25.7754 219.583 25.603L221.208 24.4132C221.208 24.4132 222.032 25.6405 223.242 25.7779C223.242 25.7779 221.213 24.5032 221.442 24.2257C221.487 24.1707 222.33 23.6358 222.33 23.6358C222.33 23.6358 223.774 25.7604 225.649 25.9179C225.649 25.9179 223.024 24.7206 222.65 23.4184L223.969 22.686C223.969 22.686 225.384 25.0081 227.511 25.268C227.511 25.268 224.811 23.9233 224.262 22.546L225.656 22.0011C225.656 22.0011 227.081 24.2382 228.85 24.4432C228.85 24.4432 225.889 22.5735 225.984 21.8986C225.984 21.8986 227.293 21.4762 227.696 21.5312C227.696 21.5312 228.755 23.1134 229.795 23.1384C229.795 23.1384 227.948 21.6812 228.07 21.4562C228.07 21.4562 229.925 21.3612 230.889 21.8087C230.889 21.8087 229.512 21.0413 228.07 21.1663C228.468 20.7138 228.989 20.3872 229.57 20.2264C229.57 20.2264 228.548 19.8065 227.613 21.1938C227.613 21.1938 226.171 21.3262 225.994 21.4862C225.994 21.4862 226.723 19.9865 227.621 19.3491C227.621 19.3491 226.281 19.5841 225.621 21.6187L224.222 22.1436C224.222 22.1436 225.079 20.1115 225.839 19.4816C225.839 19.4816 224.509 19.934 223.874 22.3036L222.575 23.0084C222.575 23.0084 223.179 21.1988 223.872 20.3189C223.872 20.3189 222.73 21.0038 222.21 23.2234L221.395 23.7958C221.395 23.7958 221.862 22.4835 222.03 22.1186C222.197 21.7537 222.112 21.6787 222.112 21.6787C221.547 22.3493 221.179 23.1634 221.048 24.0308C221.048 24.0308 219.436 25.318 219.348 25.228Z" fill="#6C63FF"/>
<path opacity="0.1" d="M164.808 36.5957C164.808 36.5957 169.841 26.825 175.804 31.8641C175.804 31.8641 177.101 32.3365 177.004 33.7112C177.004 33.7112 176.504 33.4363 176.107 34.4861C175.962 34.8575 175.774 35.2107 175.547 35.5384C175.239 35.9822 174.797 36.3146 174.285 36.4857C174.285 36.4857 171.615 38.4854 166.67 36.9432C166.67 36.9432 165.272 37.1456 165.048 36.9706L166.672 35.7809C166.672 35.7809 167.497 37.0081 168.704 37.1481C168.704 37.1481 166.675 35.8708 166.904 35.5934C166.952 35.5384 167.794 35.0035 167.794 35.0035C167.794 35.0035 169.239 37.1281 171.111 37.2856C171.111 37.2856 168.489 36.0883 168.112 34.786L169.431 34.0562C169.431 34.0562 170.848 36.3758 172.975 36.6357C172.975 36.6357 170.276 35.291 169.726 33.9137L171.121 33.3688C171.121 33.3688 172.548 35.6059 174.317 35.8109C174.317 35.8109 171.356 33.9412 171.448 33.2663C171.448 33.2663 172.76 32.8439 173.162 32.8989C173.162 32.8989 174.222 34.4811 175.262 34.5086C175.262 34.5086 173.415 33.0489 173.537 32.8239C173.537 32.8239 175.389 32.7289 176.356 33.1763C176.356 33.1763 174.977 32.409 173.535 32.5339C173.933 32.0814 174.454 31.7548 175.034 31.5941C175.034 31.5941 174.015 31.1742 173.08 32.5614C173.08 32.5614 171.638 32.6939 171.461 32.8539C171.461 32.8539 172.188 31.3542 173.087 30.7168C173.087 30.7168 171.748 30.9517 171.088 32.9864L169.671 33.5113C169.671 33.5113 170.531 31.4791 171.288 30.8517C171.288 30.8517 169.961 31.3017 169.326 33.6712L168.024 34.3761C168.024 34.3761 168.631 32.5664 169.324 31.6866C169.324 31.6866 168.182 32.3715 167.659 34.5911L166.844 35.1635C166.844 35.1635 167.312 33.8512 167.479 33.4863C167.647 33.1213 167.564 33.0464 167.564 33.0464C166.998 33.7163 166.629 34.5307 166.5 35.3984C166.5 35.3984 164.895 36.6857 164.808 36.5957Z" fill="#6C63FF"/>
</g>
<defs>
<clipPath id="clip0_151_2">
<rect width="268" height="195" fill="white"/>
</clipPath>
</defs>
</svg>
