<svg width="51" height="49" viewBox="0 0 51 49" fill="none" xmlns="http://www.w3.org/2000/svg">
<path d="M16.8128 39.4602C16.8128 39.6602 16.5798 39.8252 16.2858 39.8252C15.9518 39.8552 15.7188 39.6932 15.7188 39.4602C15.7188 39.2602 15.9518 39.0952 16.2458 39.0952C16.5498 39.0652 16.8128 39.2272 16.8128 39.4602ZM13.6618 39.0042C13.5908 39.2042 13.7938 39.4402 14.0978 39.5042C14.208 39.5586 14.335 39.5682 14.4521 39.5309C14.5692 39.4936 14.6673 39.4123 14.7258 39.3042C14.7868 39.1042 14.5938 38.8682 14.2898 38.7772C14.1751 38.7353 14.0493 38.7351 13.9345 38.7766C13.8197 38.8181 13.7231 38.8987 13.6618 39.0042ZM18.1398 38.8322C17.8458 38.9032 17.6398 39.0952 17.6738 39.3322C17.7038 39.5322 17.9678 39.6662 18.2738 39.5952C18.5798 39.5242 18.7738 39.3322 18.7398 39.1292C18.7058 38.9262 18.4338 38.8022 18.1408 38.8322H18.1398ZM24.8038 0.00522291C21.5349 -0.0625598 18.286 0.530026 15.2515 1.74749C12.2171 2.96496 9.45957 4.78228 7.14404 7.09061C4.82852 9.39894 3.00264 12.1508 1.77574 15.1815C0.548842 18.2121 -0.0538436 21.4592 0.00377372 24.7282C-0.0391769 30.0592 1.59636 35.2686 4.67868 39.6184C7.76101 43.9682 12.1339 47.2379 17.1778 48.9642C18.4778 49.1972 18.9308 48.3972 18.9308 47.7382C18.9308 47.1102 18.9008 43.6452 18.9008 41.5172C18.9008 41.5172 11.8078 43.0372 10.3188 38.4982C10.3188 38.4982 9.16377 35.5502 7.50177 34.7902C7.50177 34.7902 5.18177 33.1992 7.66377 33.2302C8.47171 33.3389 9.24412 33.6308 9.92196 34.0837C10.5998 34.5366 11.1651 35.1384 11.5748 35.8432C13.7938 39.7542 17.5118 38.6292 18.9608 37.9612C19.0908 36.6691 19.6635 35.4615 20.5818 34.5432C14.9188 33.9182 9.20377 33.0972 9.20377 23.3502C9.14734 22.2418 9.33186 21.1342 9.74463 20.1039C10.1574 19.0737 10.7886 18.1451 11.5948 17.3822C10.8262 15.1356 10.9199 12.6836 11.8578 10.5022C13.9758 9.84322 18.8488 13.2382 18.8488 13.2382C23.0131 12.0899 27.4105 12.0899 31.5748 13.2382C31.5748 13.2382 36.4488 9.83822 38.5658 10.5022C39.504 12.6835 39.5978 15.1357 38.8288 17.3822C40.4498 19.1752 41.4428 20.5742 41.4428 23.3502C41.4428 33.1282 35.4748 33.9082 29.8108 34.5502C30.4197 35.1632 30.8888 35.9005 31.1861 36.7118C31.4833 37.523 31.6016 38.389 31.5328 39.2502C31.5328 42.6652 31.5028 46.8902 31.5028 47.7212C31.5028 48.3802 31.9688 49.1802 33.2558 48.9472C38.2834 47.223 42.6361 43.9513 45.69 39.6011C48.7439 35.2509 50.3422 30.0456 50.2558 24.7312C50.2598 10.6752 38.8608 0.00522291 24.8038 0.00522291ZM9.85177 34.9512C9.71977 35.0512 9.75177 35.2852 9.92277 35.4782C10.0848 35.6402 10.3228 35.7112 10.4498 35.5782C10.5818 35.4782 10.5498 35.2442 10.3788 35.0512C10.2168 34.8912 9.98377 34.8202 9.85177 34.9512ZM8.75777 34.1302C8.68677 34.2622 8.78777 34.4242 8.99077 34.5302C9.02342 34.5559 9.06104 34.5745 9.10125 34.5848C9.14146 34.5952 9.18338 34.5971 9.22436 34.5904C9.26534 34.5838 9.3045 34.5687 9.33934 34.5461C9.37418 34.5235 9.40395 34.4939 9.42677 34.4592C9.49777 34.3272 9.39677 34.1652 9.19377 34.0592C8.99077 33.9992 8.82877 34.0292 8.75777 34.1312V34.1302ZM12.0408 37.7372C11.8788 37.8692 11.9408 38.1732 12.1728 38.3652C12.4058 38.5982 12.6998 38.6282 12.8318 38.4652C12.9638 38.3332 12.9028 38.0292 12.6998 37.8372C12.4768 37.6062 12.1728 37.5762 12.0408 37.7382V37.7372ZM10.8858 36.2482C10.7238 36.3482 10.7238 36.6132 10.8858 36.8482C11.0478 37.0832 11.3218 37.1822 11.4528 37.0812C11.5319 36.9958 11.5759 36.8837 11.5759 36.7672C11.5759 36.6508 11.5319 36.5386 11.4528 36.4532C11.3118 36.2182 11.0478 36.1172 10.8858 36.2482Z" fill="#27354C"/>
</svg>
