<svg width="17" height="20" viewBox="0 0 17 20" fill="none" xmlns="http://www.w3.org/2000/svg">
<path d="M2.45389 3.32031C2.17847 3.32031 1.95312 3.54566 1.95312 3.82108C1.95312 4.0965 2.17847 4.32185 2.45389 4.32185C2.72931 4.32185 2.95466 4.0965 2.95466 3.82108C2.95466 3.54566 2.73349 3.32031 2.45389 3.32031Z" fill="#FAA346"/>
<path d="M4.41092 3.32031C4.1355 3.32031 3.91016 3.54566 3.91016 3.82108C3.91016 4.0965 4.1355 4.32185 4.41092 4.32185C4.68634 4.32185 4.91169 4.0965 4.91169 3.82108C4.91169 3.54566 4.68634 3.32031 4.41092 3.32031Z" fill="#FAA346"/>
<path d="M6.36795 3.32031C6.09253 3.32031 5.86719 3.54566 5.86719 3.82108C5.86719 4.0965 6.09253 4.32185 6.36795 4.32185C6.64338 4.32185 6.86872 4.0965 6.86872 3.82108C6.86872 3.54566 6.64338 3.32031 6.36795 3.32031Z" fill="#FAA346"/>
<path d="M0.500767 3.32031C0.367229 3.32031 0.237864 3.37456 0.146057 3.46637C0.0542497 3.55818 0 3.68754 0 3.82108C0 3.95462 0.0542497 4.08398 0.146057 4.17579C0.237864 4.2676 0.367229 4.32185 0.500767 4.32185C0.634305 4.32185 0.763669 4.2676 0.855477 4.17579C0.947284 4.08398 1.00153 3.95462 1.00153 3.82108C1.00153 3.68754 0.947284 3.55818 0.855477 3.46637C0.759496 3.37456 0.630132 3.32031 0.500767 3.32031Z" fill="#FAA346"/>
<path d="M0.500767 6.27888C0.777333 6.27888 1.00153 6.05468 1.00153 5.77811C1.00153 5.50154 0.777333 5.27734 0.500767 5.27734C0.224201 5.27734 0 5.50154 0 5.77811C0 6.05468 0.224201 6.27888 0.500767 6.27888Z" fill="#FAA346"/>
<path d="M0.500767 7.23926C0.225345 7.23926 0 7.4646 0 7.74002C0 8.01545 0.225345 8.24079 0.500767 8.24079C0.776189 8.24079 1.00153 8.01545 1.00153 7.74002C1.00153 7.4646 0.776189 7.23926 0.500767 7.23926Z" fill="#FAA346"/>
<path d="M0.500767 15.0762C0.225345 15.0762 0 15.3015 0 15.5769C0 15.8524 0.225345 16.0777 0.500767 16.0777C0.776189 16.0777 1.00153 15.8524 1.00153 15.5769C1.00153 15.3015 0.776189 15.0762 0.500767 15.0762Z" fill="#FAA346"/>
<path d="M0.500767 13.1182C0.225345 13.1182 0 13.3435 0 13.6189C0 13.8944 0.225345 14.1197 0.500767 14.1197C0.776189 14.1197 1.00153 13.8944 1.00153 13.6189C1.00153 13.3393 0.776189 13.1182 0.500767 13.1182Z" fill="#FAA346"/>
<path d="M0.500767 17.0371C0.225345 17.0371 0 17.2625 0 17.5379C0 17.8133 0.225345 18.0386 0.500767 18.0386C0.776189 18.0386 1.00153 17.8133 1.00153 17.5379C1.00153 17.2625 0.776189 17.0371 0.500767 17.0371Z" fill="#FAA346"/>
<path d="M0.500767 9.2002C0.225345 9.2002 0 9.42554 0 9.70096C0 9.97638 0.225345 10.2017 0.500767 10.2017C0.776189 10.2017 1.00153 9.97638 1.00153 9.70096C1.00153 9.42137 0.776189 9.2002 0.500767 9.2002Z" fill="#FAA346"/>
<path d="M0.500767 11.1572C0.225345 11.1572 0 11.3826 0 11.658C0 11.9334 0.225345 12.1588 0.500767 12.1588C0.776189 12.1588 1.00153 11.9334 1.00153 11.658C1.00153 11.3826 0.776189 11.1572 0.500767 11.1572Z" fill="#FAA346"/>
<path d="M0.500767 18.9941C0.367229 18.9941 0.237864 19.0484 0.146057 19.1402C0.0542497 19.232 0 19.3614 0 19.4949C0 19.6284 0.0542497 19.7578 0.146057 19.8496C0.237864 19.9414 0.367229 19.9957 0.500767 19.9957C0.634305 19.9957 0.763669 19.9414 0.855477 19.8496C0.947284 19.7578 1.00153 19.6284 1.00153 19.4949C1.00153 19.3614 0.947284 19.232 0.855477 19.1402C0.759496 19.0484 0.630132 18.9941 0.500767 18.9941Z" fill="#FAA346"/>
<path d="M6.36795 18.9941C6.09253 18.9941 5.86719 19.2195 5.86719 19.4949C5.86719 19.7703 6.09253 19.9957 6.36795 19.9957C6.64338 19.9957 6.86872 19.7703 6.86872 19.4949C6.86872 19.2195 6.64338 18.9941 6.36795 18.9941Z" fill="#FAA346"/>
<path d="M2.45389 18.9941C2.17847 18.9941 1.95312 19.2195 1.95312 19.4949C1.95312 19.7703 2.17847 19.9957 2.45389 19.9957C2.72931 19.9957 2.95466 19.7703 2.95466 19.4949C2.95466 19.2195 2.73349 18.9941 2.45389 18.9941Z" fill="#FAA346"/>
<path d="M4.41092 18.9941C4.1355 18.9941 3.91016 19.2195 3.91016 19.4949C3.91016 19.7703 4.1355 19.9957 4.41092 19.9957C4.68634 19.9957 4.91169 19.7703 4.91169 19.4949C4.91169 19.2195 4.68634 18.9941 4.41092 18.9941Z" fill="#FAA346"/>
<path d="M16.1747 3.32029H13.3537V0.4993C13.3537 0.311513 13.2494 0.136244 13.0783 0.0527832C12.9114 -0.0306779 12.7069 -0.0139857 12.5566 0.0945138L8.04139 3.41627C7.91203 3.51225 7.83691 3.6583 7.83691 3.82105V19.4992C7.83691 19.7747 8.06226 20 8.33768 20H16.1747C16.4501 20 16.6754 19.7747 16.6754 19.4992V3.82105C16.6754 3.54563 16.4543 3.32029 16.1747 3.32029ZM8.83845 4.07561L12.3522 1.48831V15.9187L8.83845 18.4935V4.07561ZM15.6739 18.9943H9.84833L13.1492 16.5781C13.2786 16.4821 13.3537 16.3319 13.3537 16.1733V4.32182H15.6739V18.9943Z" fill="#9E58C5"/>
</svg>
