<svg width="49" height="49" viewBox="0 0 49 49" fill="none" xmlns="http://www.w3.org/2000/svg">
<path d="M24.5 49C38.031 49 49 38.031 49 24.5C49 10.969 38.031 0 24.5 0C10.969 0 0 10.969 0 24.5C0 38.031 10.969 49 24.5 49Z" fill="#010D26"/>
<path d="M24.5 48C37.4787 48 48 37.4787 48 24.5C48 11.5213 37.4787 1 24.5 1C11.5213 1 1 11.5213 1 24.5C1 37.4787 11.5213 48 24.5 48Z" stroke="#13B3F2" stroke-width="2"/>
<path d="M8.67378 24.0799V23.5685L12.7903 21.4719V22.2901L9.63259 23.8114L9.65816 23.7603V23.8881L9.63259 23.837L12.7903 25.3583V26.1764L8.67378 24.0799ZM34.6678 20.1424L32.5585 27.979H31.8681L33.9775 20.1424H34.6678ZM39.8957 24.6935L35.7793 26.7901V25.9719L38.9369 24.4506L38.9114 24.5017V24.3739L38.9369 24.425L35.7793 22.9037V22.0855L39.8957 24.1821V24.6935Z" fill="#FBAC39"/>
<path d="M14.4913 26.9946V20.4492H15.284V23.6963H15.3607L18.301 20.4492H19.3365L16.5879 23.4023L19.3365 26.9946H18.3777L16.1021 23.952L15.284 24.8725V26.9946H14.4913ZM22.3823 26.9946H20.3624V20.4492H22.4718C23.1068 20.4492 23.6501 20.5802 24.1018 20.8423C24.5535 21.1022 24.8997 21.4762 25.1405 21.9641C25.3813 22.4499 25.5016 23.0316 25.5016 23.7091C25.5016 24.3909 25.3802 24.9779 25.1373 25.4701C24.8944 25.9602 24.5407 26.3373 24.0762 26.6015C23.6117 26.8636 23.0471 26.9946 22.3823 26.9946ZM21.1551 26.2915H22.3312C22.8724 26.2915 23.3209 26.1871 23.6767 25.9783C24.0325 25.7695 24.2978 25.4723 24.4725 25.0866C24.6472 24.7009 24.7346 24.2418 24.7346 23.7091C24.7346 23.1807 24.6483 22.7258 24.4757 22.3444C24.3031 21.9609 24.0453 21.6669 23.7023 21.4623C23.3592 21.2556 22.932 21.1523 22.4207 21.1523H21.1551V26.2915ZM26.6139 26.9946V26.4193L30.1423 21.1523H26.5755V20.4492H31.0883V21.0245L27.5599 26.2915H31.1266V26.9946H26.6139Z" fill="#13B3F2"/>
</svg>
