<svg width="50" height="49" viewBox="0 0 50 49" fill="none" xmlns="http://www.w3.org/2000/svg">
<path d="M46.2466 0.00537109H4.23563C3.30478 0.0122443 2.41467 0.388078 1.76058 1.05042C1.10649 1.71276 0.741836 2.60751 0.746629 3.53837V45.4724C0.741836 46.4032 1.10649 47.298 1.76058 47.9603C2.41467 48.6227 3.30478 48.9985 4.23563 49.0054H46.2466C47.1786 48.999 48.0702 48.6237 48.7261 47.9616C49.3821 47.2994 49.749 46.4044 49.7466 45.4724V3.53837C49.749 2.60633 49.3821 1.7113 48.7261 1.04916C48.0702 0.387027 47.1786 0.0117156 46.2466 0.00537109ZM15.5556 42.0054H8.29363V18.6214H15.5666V42.0054H15.5556ZM11.9246 15.4274C11.0918 15.4274 10.2776 15.1804 9.58512 14.7177C8.89263 14.255 8.35289 13.5973 8.03417 12.8279C7.71545 12.0584 7.63206 11.2117 7.79454 10.3948C7.95702 9.57799 8.35808 8.82766 8.947 8.23874C9.53592 7.64983 10.2862 7.24877 11.1031 7.08628C11.92 6.9238 12.7666 7.00719 13.5361 7.32591C14.3056 7.64464 14.9632 8.18437 15.4259 8.87686C15.8887 9.56936 16.1356 10.3835 16.1356 11.2164C16.1351 12.333 15.6913 13.4038 14.9017 14.1934C14.1121 14.983 13.0413 15.4268 11.9246 15.4274ZM42.7796 42.0054H35.5166V30.6304C35.5166 27.9184 35.4616 24.4304 31.7436 24.4304C27.9596 24.4304 27.3796 27.3834 27.3796 30.4304V42.0054H20.1166V18.6214H27.0836V21.8154H27.1836C27.8828 20.6238 28.8916 19.6438 30.103 18.9794C31.3143 18.3151 32.683 17.9913 34.0636 18.0424C41.4136 18.0424 42.7806 22.8874 42.7806 29.1874L42.7796 42.0054Z" fill="#27354C"/>
</svg>
