<svg width="40" height="35" viewBox="0 0 40 35" fill="none" xmlns="http://www.w3.org/2000/svg">
<path d="M18.9493 34.5796C28.0688 34.5796 35.4616 26.9974 35.4616 17.6443C35.4616 8.29118 28.0688 0.708984 18.9493 0.708984C9.82981 0.708984 2.43701 8.29118 2.43701 17.6443C2.43701 26.9974 9.82981 34.5796 18.9493 34.5796Z" fill="#9E58C5"/>
<path d="M28.6726 33.8485C30.9132 33.7833 33.067 32.9025 34.7868 31.4728C36.5461 30.0254 37.7642 28.0034 38.2396 25.7474L38.2396 25.7475L38.2409 25.7412C38.6934 23.4495 38.4029 21.0686 37.4129 18.961L37.4121 18.9595C36.4161 16.8579 34.7303 15.1791 32.6464 14.2194C30.5927 13.2583 28.2885 13.0095 26.0836 13.5115L26.0836 13.5115L26.0793 13.5125C25.8013 13.5784 25.5278 13.6578 25.2589 13.7483L25.2589 13.7483C24.8242 13.8946 24.7376 14.3258 24.8104 14.5995C24.8482 14.7417 24.9368 14.898 25.0963 15.0036C25.2707 15.119 25.4829 15.1416 25.6799 15.0753C27.5247 14.4543 29.5524 14.526 31.3902 15.201L31.3902 15.201L31.3927 15.2019C33.2345 15.8671 34.797 17.1683 35.8111 18.8866C36.8207 20.6477 37.2403 22.7009 37.0044 24.7315C36.7623 26.7122 35.8569 28.5429 34.4461 29.9112L34.4443 29.9129C33.0576 31.2712 31.2404 32.1871 29.3478 32.4057C29.115 32.4326 28.8802 32.4487 28.6435 32.4556C28.4357 32.4616 28.254 32.5554 28.1322 32.7045C28.0189 32.8432 27.9732 33.0087 27.973 33.1568C27.9728 33.3042 28.018 33.4749 28.1394 33.6166C28.2714 33.7707 28.4642 33.8546 28.6726 33.8485Z" fill="#FD774D" stroke="#FD774D"/>
<path d="M20.4971 14.1782L20.4996 14.1652C20.5529 13.8879 20.6946 13.6786 20.8327 13.5241C20.9407 13.4033 21.0694 13.2929 21.1632 13.2125C21.1821 13.1963 21.1995 13.1814 21.2151 13.1678L24.6591 10.1645C25.0017 9.86572 25.4177 9.99991 25.6213 10.2079C25.7256 10.3144 25.8137 10.4716 25.8218 10.6626C25.8306 10.87 25.742 11.0616 25.5875 11.1963C25.5875 11.1963 25.5875 11.1963 25.5875 11.1963L23.7927 12.7614L22.192 14.1573C22.192 14.1573 22.192 14.1573 22.192 14.1573C22.1518 14.1924 22.1006 14.2329 22.0593 14.2656C22.0469 14.2754 22.0354 14.2845 22.0253 14.2926C21.9834 14.3262 21.948 14.3556 21.918 14.3832C21.9642 14.4182 22.022 14.4541 22.091 14.4951C22.8818 14.9652 23.6821 15.4088 24.4895 15.8563C24.8913 16.079 25.2948 16.3026 25.6998 16.531C25.8795 16.6324 26.0001 16.8003 26.037 16.9954C26.0712 17.1761 26.028 17.3461 25.9541 17.4756C25.8802 17.6052 25.7564 17.7283 25.5848 17.7912C25.3999 17.859 25.1947 17.843 25.015 17.7417L25.207 17.4012M20.4971 14.1782L25.2086 17.4021C25.2081 17.4018 25.2075 17.4015 25.207 17.4012M20.4971 14.1782L20.4953 14.1913C20.4655 14.4067 20.4897 14.6265 20.5658 14.8304C20.6401 15.0292 20.7618 15.2073 20.9211 15.348M20.4971 14.1782L20.9211 15.348M25.207 17.4012L25.015 17.7417L22.7907 16.4873L21.7897 15.9229C21.7555 15.9036 21.7182 15.8831 21.6785 15.8614C21.4564 15.7398 21.1605 15.5778 20.9211 15.348M25.207 17.4012L20.9211 15.348M21.8436 14.3143C21.8436 14.3143 21.8443 14.3152 21.8453 14.3169C21.844 14.3152 21.8435 14.3143 21.8436 14.3143ZM24.9303 10.4427L24.9303 10.4427L24.9303 10.4427Z" fill="#FD774D" stroke="#FD774D"/>
<path d="M1.30996 13.7577L1.30983 13.76C1.14366 16.6154 1.89249 19.4493 3.44377 21.8296L3.44472 21.831C5.00148 24.2019 7.32305 25.9389 10.0057 26.7352C12.6299 27.5204 15.5014 27.4551 18.0723 26.4405C18.3973 26.3122 18.7148 26.1684 19.0251 26.0118C19.4576 25.7934 19.4906 25.3294 19.3715 25.0458C19.31 24.8991 19.1924 24.747 19.009 24.66C18.8093 24.5654 18.5839 24.5737 18.3861 24.6736C16.2097 25.7722 13.6922 26.0453 11.3094 25.5406C8.92544 25.0357 6.7478 23.7245 5.22372 21.7802C3.67811 19.7873 2.81098 17.328 2.75726 14.7789C2.71956 12.289 3.52666 9.86455 5.03819 7.92024L5.03819 7.92024L5.03969 7.9183C6.52116 5.99325 8.61017 4.536 10.9141 3.92663C11.1975 3.85166 11.4852 3.78975 11.7762 3.73893C12.2652 3.65357 12.4194 3.20421 12.3779 2.89919C12.3564 2.74166 12.283 2.56732 12.134 2.43608C11.9726 2.2939 11.7576 2.23485 11.5381 2.27317C8.83889 2.74438 6.37845 4.18749 4.53409 6.22089C2.67136 8.27457 1.48691 10.9406 1.30996 13.7577Z" fill="#FD774D" stroke="#FD774D"/>
<path d="M22.9029 22.955L22.9029 22.955L21.5848 22.4423L18.6556 21.3029C18.4491 21.2226 18.2315 21.2382 18.0489 21.3366C17.8787 21.4282 17.766 21.5761 17.7065 21.7248C17.6472 21.8734 17.6264 22.0596 17.6886 22.2449C17.7557 22.4443 17.907 22.6038 18.1137 22.6842C18.6453 22.891 19.1752 23.0926 19.7032 23.2935C20.7662 23.6979 21.8216 24.0994 22.8685 24.5346C22.9913 24.5857 23.0984 24.6331 23.18 24.6892C23.1949 24.6995 23.2067 24.7085 23.2158 24.716C23.2047 24.735 23.1885 24.7595 23.1655 24.7895C23.1254 24.8419 23.0761 24.8967 23.0182 24.9582C23.0062 24.9709 22.9929 24.9849 22.9789 24.9996C22.9342 25.0466 22.8818 25.1017 22.8407 25.1491L22.8407 25.1491L21.1194 27.1381L21.48 27.4503L21.1194 27.1381L19.1894 29.3682C19.0464 29.5334 18.9818 29.7465 19.0208 29.9616C19.057 30.1608 19.1727 30.3145 19.3005 30.4127C19.5515 30.6056 20.0087 30.6785 20.3237 30.3145L24.0272 26.0352C24.045 26.0146 24.0646 25.9923 24.0855 25.9686C24.1869 25.8533 24.3188 25.7034 24.4253 25.5443C24.5607 25.3421 24.687 25.0823 24.7041 24.763C24.7347 24.1892 24.3966 23.7541 24.0504 23.5006L23.7709 23.8823L24.0504 23.5006C23.7296 23.2657 23.3506 23.1236 23.0536 23.0122C23.0005 22.9922 22.95 22.9733 22.9029 22.955Z" fill="#FD774D" stroke="#FD774D"/>
</svg>
