<svg width="292" height="522" viewBox="0 0 292 522" fill="none" xmlns="http://www.w3.org/2000/svg">
<path d="M132.304 107.561L89.8248 170.341C88.1646 173.139 87.2051 176.305 87.0294 179.562C86.8537 182.82 87.4671 186.072 88.8165 189.036C90.1658 192 92.2103 194.587 94.7727 196.572C97.3352 198.557 100.338 199.88 103.521 200.427H188.479C191.662 199.88 194.665 198.557 197.227 196.572C199.79 194.587 201.834 192 203.184 189.036C204.533 186.072 205.146 182.82 204.971 179.562C204.795 176.305 203.835 173.139 202.175 170.341L159.696 107.561C158.223 105.242 156.197 103.334 153.803 102.013C151.41 100.692 148.727 100 146 100C143.273 100 140.59 100.692 138.197 102.013C135.803 103.334 133.777 105.242 132.304 107.561ZM159.696 413.439L202.175 350.86C203.835 348.061 204.795 344.896 204.971 341.638C205.146 338.381 204.533 335.129 203.184 332.165C201.834 329.201 199.79 326.614 197.227 324.629C194.665 322.644 191.662 321.32 188.479 320.773H103.521C100.338 321.32 97.3352 322.644 94.7727 324.629C92.2103 326.614 90.1658 329.201 88.8165 332.165C87.4671 335.129 86.8537 338.381 87.0294 341.638C87.2051 344.896 88.1646 348.061 89.8248 350.86L132.304 413.439C133.777 415.758 135.803 417.666 138.197 418.987C140.59 420.308 143.273 421 146 421C148.727 421 151.41 420.308 153.803 418.987C156.197 417.666 158.223 415.758 159.696 413.439Z" stroke="url(#paint0_linear_397_6)" stroke-width="30" stroke-linecap="round" stroke-linejoin="round"/>
<rect x="15" y="15" width="262" height="492" rx="95" stroke="url(#paint1_linear_397_6)" stroke-width="30"/>
<defs>
<linearGradient id="paint0_linear_397_6" x1="132.5" y1="5.50001" x2="146" y2="508.5" gradientUnits="userSpaceOnUse">
<stop stop-color="#FBA400"/>
<stop offset="1" stop-color="#F44903"/>
</linearGradient>
<linearGradient id="paint1_linear_397_6" x1="146" y1="30" x2="146" y2="492" gradientUnits="userSpaceOnUse">
<stop stop-color="#FBA400"/>
<stop offset="1" stop-color="#F44903"/>
</linearGradient>
</defs>
</svg>
