<svg width="14" height="24" viewBox="0 0 14 24" fill="none" xmlns="http://www.w3.org/2000/svg">
<path d="M5.3348 16.0223H4.83352C4.38448 16.0218 3.95396 15.8429 3.63644 15.5249C3.31891 15.2068 3.14031 14.7756 3.1398 14.3258V13.9043C3.1398 12.8602 3.33729 11.986 3.72684 11.306C4.19891 10.5149 4.74965 9.77372 5.37064 9.0937C5.78291 8.67844 6.15699 8.22681 6.48834 7.7443C6.72608 7.36945 6.84881 6.93298 6.84134 6.48895C6.84134 5.4416 6.1601 4.93244 4.75865 4.93244C3.98125 4.94124 3.20877 5.05738 2.46304 5.27756C2.17545 5.35979 1.87273 5.37404 1.57871 5.31918C1.28469 5.26433 1.00739 5.14187 0.768642 4.96145C0.529892 4.78103 0.336206 4.54756 0.202831 4.27943C0.069456 4.0113 2.96784e-05 3.71582 1.91161e-05 3.41625V2.56294C-0.00162755 2.1956 0.103142 1.83567 0.301629 1.52677C0.500117 1.21788 0.783801 0.973293 1.11829 0.822655C2.43532 0.259673 3.85565 -0.0201987 5.28745 0.00113395C6.78739 0.00113395 8.14142 0.2535 9.31203 0.751118C10.4848 1.24989 11.4113 1.95321 12.0659 2.84159C12.7184 3.72367 13.0653 4.79524 13.0536 5.89306C13.0536 7.07195 12.7322 8.09872 12.0986 8.94486C11.4718 9.7824 10.5733 10.6993 9.42799 11.6702C8.82456 12.1729 8.25275 12.7125 7.71584 13.2859C7.36904 13.66 7.12395 14.1171 7.00401 14.6133C6.93719 15.008 6.7328 15.3662 6.42717 15.6242C6.12155 15.8822 5.73449 16.0232 5.3348 16.0223Z" fill="#FAC547"/>
<path d="M5.05625 23.9995H4.99014C4.15794 23.999 3.36001 23.6675 2.77174 23.0779C2.18348 22.4882 1.85303 21.6888 1.85303 20.8552C1.85303 20.0217 2.18348 19.2222 2.77174 18.6326C3.36001 18.043 4.15794 17.7115 4.99014 17.7109H5.05625C5.46866 17.7107 5.87708 17.7918 6.25817 17.9497C6.63926 18.1076 6.98556 18.3392 7.27727 18.6312C7.56898 18.9232 7.80039 19.2699 7.95827 19.6515C8.11615 20.0331 8.19742 20.4421 8.19742 20.8552C8.19742 21.2683 8.11615 21.6774 7.95827 22.059C7.80039 22.4406 7.56898 22.7873 7.27727 23.0793C6.98556 23.3713 6.63926 23.6029 6.25817 23.7608C5.87708 23.9187 5.46866 23.9998 5.05625 23.9995Z" fill="#FAC547"/>
</svg>
