<svg width="66" height="49" viewBox="0 0 66 49" fill="none" xmlns="http://www.w3.org/2000/svg">
<path d="M63.9685 7.65146C63.2173 4.63955 61.0036 2.26789 58.1925 1.46289C53.097 -3.91155e-07 32.6667 0 32.6667 0C32.6667 0 12.2364 -3.91155e-07 7.14087 1.46289C4.33026 2.26789 2.11619 4.63955 1.36498 7.65146C0 13.1104 0 24.5004 0 24.5004C0 24.5004 0 35.8902 1.36498 41.3485C2.11619 44.3604 4.33026 46.7328 7.14087 47.5376C12.2364 49 32.6667 49 32.6667 49C32.6667 49 53.097 49 58.1925 47.5376C61.0036 46.7328 63.2173 44.3604 63.9685 41.3485C65.3333 35.8902 65.3333 24.5004 65.3333 24.5004C65.3333 24.5004 65.3333 13.1104 63.9685 7.65146ZM26.133 35.0005V14.0001L43.1068 24.5004L26.133 35.0005Z" fill="#27354C"/>
</svg>
